<svg id="Layer_1" viewBox="0 0 512 512" xmlns="http://www.w3.org/2000/svg" data-name="Layer 1"><path d="m496.01 249.021h-30.771v-233.022c0-3.859-3.128-6.987-6.987-6.987h-216c-3.859 0-6.987 3.128-6.987 6.987v68.414h-58.025v-68.414c0-2.358-1.19-4.559-3.164-5.849-1.974-1.291-4.466-1.497-6.627-.552l-116.477 51.024c-2.542 1.113-4.184 3.625-4.184 6.4v181.999h-30.798c-3.859 0-6.987 3.128-6.987 6.987 0 9.089.52 18.362 1.545 27.559.958 8.618 8.22 15.117 16.894 15.117h19.729c1.476 0 2.636.938 2.951 2.375 5.305 24.438 14.864 47.554 28.425 68.723.796 1.233.638 2.702-.402 3.743l-13.946 13.945c-6.137 6.136-6.673 15.866-1.255 22.626 5.697 7.13 11.89 14.048 18.404 20.562 6.514 6.515 13.433 12.707 20.555 18.398 6.795 5.446 16.534 4.9 22.634-1.249l13.925-13.925c1.062-1.053 2.557-1.213 3.802-.416 21.036 13.523 44.144 23.085 68.668 28.415 1.453.318 2.391 1.479 2.391 2.954v19.729c0 8.675 6.499 15.938 15.114 16.894 9.145 1.02 18.353 1.529 27.562 1.529s18.416-.51 27.558-1.529c8.618-.956 15.117-8.219 15.117-16.894v-19.729c0-1.476.938-2.636 2.375-2.951 24.508-5.32 47.625-14.881 68.722-28.425 1.228-.792 2.706-.627 3.743.401l13.946 13.946c6.136 6.136 15.866 6.672 22.626 1.256 7.131-5.7 14.05-11.892 20.563-18.405 6.512-6.512 12.705-13.431 18.398-20.555 5.424-6.768 4.888-16.498-1.249-22.633l-13.946-13.946c-1.044-1.044-1.197-2.532-.396-3.782 13.524-21.039 23.086-44.146 28.415-68.668.319-1.452 1.479-2.391 2.955-2.391h19.729c8.674 0 15.937-6.499 16.894-15.114 1.025-9.199 1.545-18.473 1.545-27.562 0-3.859-3.128-6.987-6.987-6.987zm-246.771-226.035h202.025v226.035h-202.025zm-78.987 240.01h44.008v28.411l-24.043 16.183c-4.152-3.702-9.617-5.957-15.6-5.957-12.95 0-23.485 10.548-23.485 23.513s10.535 23.485 23.485 23.485 23.485-10.535 23.485-23.485c0-1.918-.236-3.78-.671-5.566l27.717-18.655c1.929-1.299 3.086-3.472 3.086-5.797v-32.131h20.778v79.723c-9.548 2.981-16.498 11.906-16.498 22.424 0 12.95 10.535 23.485 23.485 23.485s23.485-10.535 23.485-23.485c0-10.518-6.949-19.442-16.498-22.424v-79.723h20.778v32.131c0 2.325 1.157 4.498 3.086 5.797l27.717 18.656c-.435 1.786-.67 3.648-.67 5.566 0 12.95 10.535 23.485 23.485 23.485s23.485-10.535 23.485-23.485-10.535-23.513-23.485-23.513c-5.983 0-11.448 2.255-15.6 5.957l-24.043-16.183v-28.411h101.478c-3.657 75.833-66.495 136.403-143.218 136.403s-139.561-60.571-143.218-136.403h57.47zm13.876 62.149c0 5.244-4.267 9.511-9.511 9.511s-9.51-4.267-9.51-9.511 4.266-9.538 9.51-9.538 9.511 4.279 9.511 9.538zm71.872 30.486c5.244 0 9.51 4.267 9.51 9.511s-4.266 9.511-9.51 9.511-9.51-4.267-9.51-9.511 4.266-9.511 9.51-9.511zm81.383-40.024c5.244 0 9.51 4.279 9.51 9.538s-4.266 9.511-9.51 9.511-9.51-4.267-9.51-9.511 4.266-9.538 9.51-9.538zm-102.118-66.586h-22.025v-150.634h22.025zm-36-150.634v150.634h-22.025v-150.634zm-138.501-26.798 102.501-44.901v222.333h-102.502v-177.432zm426.799 210.435c-.173 1.556-1.437 2.686-3.005 2.686h-19.729c-8.048 0-14.876 5.497-16.608 13.383-4.977 22.899-13.898 44.463-26.522 64.103-4.354 6.794-3.419 15.517 2.274 21.211l13.947 13.947c1.106 1.106 1.202 2.793.219 4.019-5.377 6.729-11.222 13.258-17.369 19.406-6.148 6.147-12.677 11.991-19.413 17.374-1.219.978-2.906.881-4.012-.225l-13.968-13.968c-5.722-5.673-14.432-6.594-21.167-2.25-19.675 12.631-41.249 21.554-64.139 26.522-7.872 1.729-13.37 8.557-13.37 16.604v19.729c0 1.568-1.129 2.832-2.688 3.005-17.262 1.924-34.767 1.924-52.03 0-1.556-.173-2.685-1.437-2.685-3.005v-19.729c0-8.048-5.498-14.876-13.384-16.607-22.901-4.978-44.466-13.899-64.102-26.522-2.845-1.823-6.034-2.716-9.201-2.716-4.365 0-8.689 1.696-12.011 4.99l-13.966 13.966c-1.073 1.081-2.791 1.168-4 .2-6.727-5.376-13.256-11.22-19.405-17.369-6.15-6.15-11.994-12.68-17.375-19.414-.976-1.218-.881-2.904.226-4.011l13.947-13.947c5.705-5.707 6.635-14.426 2.274-21.182-12.648-19.745-21.572-41.321-26.527-64.146-1.728-7.872-8.556-13.369-16.604-13.369h-19.729c-1.568 0-2.832-1.13-3.005-2.688-.707-6.339-1.159-12.712-1.352-19.025h75.702c3.668 83.543 72.782 150.378 157.212 150.378s153.544-66.835 157.212-150.378h75.703c-.193 6.313-.646 12.688-1.353 19.028zm-379.192-158.522c3.859 0 6.987-3.128 6.987-6.987v-30.728c0-3.859-3.128-6.987-6.987-6.987h-30.756c-3.859 0-6.987 3.128-6.987 6.987v30.728c0 3.859 3.128 6.987 6.987 6.987zm-23.769-30.728h16.781v16.753h-16.781zm22.763 50.386v30.728c0 3.859 3.128 6.987 6.987 6.987h30.756c3.859 0 6.987-3.128 6.987-6.987v-30.728c0-3.859-3.128-6.987-6.987-6.987h-30.756c-3.859 0-6.987 3.128-6.987 6.987zm13.975 6.987h16.781v16.753h-16.781zm-2.608 78.506v-30.756c0-3.859-3.128-6.987-6.987-6.987h-30.756c-3.859 0-6.987 3.128-6.987 6.987v30.756c0 3.859 3.128 6.987 6.987 6.987h30.756c3.859 0 6.987-3.128 6.987-6.987zm-13.975-6.987h-16.781v-16.781h16.781zm168.987-145.786h152.986c3.859 0 6.987-3.128 6.987-6.987v-26.249c0-3.859-3.128-6.987-6.987-6.987h-152.986c-3.859 0-6.987 3.128-6.987 6.987v26.249c0 3.859 3.128 6.987 6.987 6.987zm6.987-26.249h139.011v12.274h-139.011zm-6.987 77.358h152.986c3.859 0 6.987-3.128 6.987-6.987v-26.249c0-3.859-3.128-6.987-6.987-6.987h-152.986c-3.859 0-6.987 3.128-6.987 6.987v26.249c0 3.859 3.128 6.987 6.987 6.987zm6.987-26.249h139.011v12.274h-139.011zm-6.987 77.329h152.986c3.859 0 6.987-3.128 6.987-6.987v-26.249c0-3.859-3.128-6.987-6.987-6.987h-152.986c-3.859 0-6.987 3.128-6.987 6.987v26.249c0 3.859 3.128 6.987 6.987 6.987zm6.987-26.249h139.011v12.274h-139.011zm-6.987 77.357h152.986c3.859 0 6.987-3.128 6.987-6.987v-26.249c0-3.859-3.128-6.987-6.987-6.987h-152.986c-3.859 0-6.987 3.128-6.987 6.987v26.249c0 3.859 3.128 6.987 6.987 6.987zm6.987-26.249h139.011v12.274h-139.011z"/></svg>