<svg clip-rule="evenodd" fill-rule="evenodd" stroke-linejoin="round" stroke-miterlimit="2" viewBox="0 0 510 510" xmlns="http://www.w3.org/2000/svg"><path d="m26.722 323.794h118.771c10.893 0 19.723 8.83 19.723 19.722v120.389c0 9.593-7.843 17.434-17.481 17.434h-123.255c-9.638 0-17.48-7.841-17.48-17.434v-120.389c0-10.892 8.83-19.722 19.722-19.722zm21.87 15.999h-21.87c-2.055 0-3.722 1.667-3.722 3.723v120.389c0 .801.675 1.434 1.48 1.434h123.255c.805 0 1.481-.633 1.481-1.434v-120.389c0-2.056-1.667-3.723-3.723-3.723h-21.868v49.75c0 2.916-1.587 5.601-4.14 7.007-2.554 1.407-5.671 1.313-8.135-.245l-25.242-15.957-25.241 15.957c-2.464 1.558-5.581 1.652-8.135.245-2.554-1.406-4.14-4.091-4.14-7.007zm59.033 0h-43.033v35.228l17.241-10.899c2.611-1.651 5.939-1.651 8.55 0l17.242 10.9zm87.989-15.999h118.772c10.892 0 19.722 8.83 19.722 19.722v120.389c0 9.593-7.843 17.434-17.481 17.434h-123.255c-9.638 0-17.48-7.841-17.48-17.434v-120.389c0-10.892 8.83-19.722 19.722-19.722zm21.87 15.999h-21.87c-2.055 0-3.722 1.667-3.722 3.723v120.389c0 .801.675 1.434 1.48 1.434h123.255c.805 0 1.481-.633 1.481-1.434v-120.389c0-2.056-1.667-3.723-3.722-3.723h-21.869v49.75c0 2.916-1.587 5.601-4.14 7.007-2.554 1.407-5.671 1.313-8.135-.245l-25.242-15.957-25.241 15.957c-2.464 1.558-5.581 1.652-8.135.245-2.554-1.406-4.14-4.091-4.14-7.007zm59.033 0h-43.033v35.228l17.241-10.899c2.611-1.651 5.939-1.651 8.55 0l17.242 10.9zm87.99-15.999h118.771c10.892 0 19.722 8.83 19.722 19.722v120.389c0 9.593-7.843 17.434-17.481 17.434h-123.255c-9.638 0-17.48-7.841-17.48-17.434v-120.389c0-10.892 8.83-19.722 19.723-19.722zm21.869 15.999h-21.869c-2.056 0-3.723 1.667-3.723 3.723v120.389c0 .801.676 1.434 1.48 1.434h123.255c.805 0 1.481-.633 1.481-1.434v-120.389c0-2.056-1.667-3.723-3.722-3.723h-21.869v49.75c0 2.916-1.586 5.601-4.14 7.007-2.554 1.407-5.671 1.313-8.135-.245l-25.242-15.957-25.241 15.957c-2.464 1.558-5.581 1.652-8.135.245-2.553-1.406-4.14-4.091-4.14-7.007zm59.033 0h-43.033v35.228l17.241-10.899c2.611-1.651 5.939-1.651 8.55 0l17.242 10.9zm-162.876-291.892c7.5 2.124 14.718 5.115 21.53 8.922l13.808-6.139c3.025-1.345 6.566-.688 8.907 1.653l20.685 20.685c2.338 2.338 2.997 5.874 1.658 8.897 0 0-6.118 13.811-6.118 13.811 3.811 6.818 6.804 14.046 8.929 21.57l14.081 5.419c3.088 1.188 5.126 4.156 5.126 7.466v29.259c0 3.31-2.038 6.278-5.126 7.466 0 0-14.085 5.421-14.085 5.421-2.129 7.499-5.134 14.718-8.929 21.53l6.122 13.82c1.339 3.023.68 6.559-1.658 8.897l-20.685 20.685c-2.338 2.338-5.874 2.997-8.897 1.657 0 0-13.806-6.115-13.806-6.115-6.802 3.807-14.038 6.8-21.544 8.924l-5.42 14.084c-1.189 3.088-4.157 5.126-7.467 5.126h-29.259c-3.31 0-6.277-2.038-7.466-5.126 0 0-5.42-14.082-5.419-14.082-7.521-2.129-14.746-5.136-21.561-8.932l-13.82 6.121c-3.023 1.34-6.559.681-8.897-1.657l-20.685-20.685c-2.341-2.341-2.998-5.882-1.653-8.907 0 0 6.137-13.803 6.137-13.802-3.806-6.8-6.799-14.032-8.939-21.534l-14.095-5.425c-3.088-1.188-5.126-4.156-5.126-7.466v-29.259c0-3.31 2.038-6.278 5.126-7.466 0 0 14.092-5.424 14.092-5.423 2.141-7.52 5.135-14.745 8.944-21.56l-6.139-13.807c-1.345-3.025-.688-6.566 1.653-8.907l20.685-20.685c2.341-2.341 5.882-2.998 8.907-1.653 0 0 13.808 6.139 13.807 6.139 6.815-3.808 14.036-6.8 21.537-8.924l5.448-14.118c1.191-3.086 4.157-5.12 7.464-5.12h29.259c3.312 0 6.281 2.039 7.468 5.13zm-13.461 9.574-4.924-12.814h-18.275l-4.949 12.824c-.949 2.46-3.049 4.294-5.614 4.903-8.717 2.072-17.031 5.516-24.673 10.225-2.248 1.385-5.034 1.572-7.447.499l-12.54-5.576-12.913 12.914 5.575 12.54c1.073 2.413.886 5.199-.499 7.447-4.712 7.647-8.158 15.968-10.258 24.72-.614 2.56-2.449 4.653-4.906 5.599l-12.788 4.922v18.273l12.788 4.922c2.455.945 4.289 3.036 4.905 5.594 2.099 8.721 5.542 17.067 10.253 24.685 1.391 2.249 1.58 5.041.505 7.458l-5.575 12.54 12.919 12.919 12.544-5.557c2.404-1.064 5.178-.88 7.42.493 7.646 4.685 15.964 8.161 24.714 10.234 2.57.609 4.674 2.447 5.622 4.911l4.922 12.789h18.273l4.922-12.789c.948-2.462 3.049-4.299 5.617-4.909 8.713-2.071 17.051-5.512 24.662-10.218 2.246-1.389 5.033-1.58 7.448-.511l12.544 5.557 12.925-12.925-5.556-12.545c-1.065-2.403-.881-5.177.493-7.419 4.685-7.647 8.162-15.966 10.235-24.69.61-2.568 2.447-4.669 4.91-5.617l12.788-4.922v-18.273l-12.788-4.922c-2.465-.949-4.303-3.052-4.911-5.622-2.072-8.743-5.516-17.056-10.224-24.697-1.383-2.244-1.571-5.026-.503-7.437l5.556-12.544-12.919-12.92-12.54 5.576c-2.413 1.073-5.199.886-7.447-.499-7.642-4.709-15.956-8.153-24.673-10.225-2.569-.61-4.671-2.449-5.618-4.913zm-14.072 28.29c32.618 0 59.064 26.417 59.064 59.035 0 32.616-26.448 59.064-59.064 59.064-32.618 0-59.035-26.446-59.035-59.064 0-32.619 26.416-59.035 59.035-59.035zm0 16c-23.778 0-43.035 19.256-43.035 43.035 0 23.78 19.255 43.064 43.035 43.064 23.781 0 43.064-19.283 43.064-43.064 0-23.78-19.284-43.035-43.064-43.035zm224.299 35.035-10.291-14.165c-2.595-3.572-1.802-8.579 1.77-11.174s8.579-1.802 11.174 1.77l19.52 26.867c2.037 2.803 2.037 6.6 0 9.404l-19.52 26.867c-2.595 3.572-7.602 4.365-11.174 1.77s-4.365-7.602-1.77-11.175l10.291-14.164h-86.16c-4.415 0-8-3.585-8-8s3.585-8 8-8zm-448.598 0h86.16c4.415 0 8 3.585 8 8s-3.585 8-8 8h-86.16l10.291 14.164c2.595 3.573 1.802 8.58-1.77 11.175s-8.579 1.802-11.174-1.77l-19.52-26.867c-2.037-2.804-2.037-6.601 0-9.404l19.52-26.867c2.595-3.572 7.602-4.365 11.174-1.77s4.365 7.602 1.77 11.174z"/></svg>