<svg clip-rule="evenodd" fill-rule="evenodd" height="6.827in" image-rendering="optimizeQuality" shape-rendering="geometricPrecision" text-rendering="geometricPrecision" viewBox="0 0 6.82666 6.82666" width="6.827in" xmlns="http://www.w3.org/2000/svg"><g id="Layer_x0020_1"><g id="_491116352"><path id="_491116760" d="m.693189.865417c-.11028 0-.200008.0897205-.200008.199996l.00000787 4.69583c0 .11028.0897165.2.199992.2h5.44029c.11028 0 .199988-.0897205.199988-.2l.00001181-4.69583c0-.11028-.0897362-.199996-.200012-.199996h-5.44027zm5.44028 5.22917h-5.44028c-.183748 0-.333343-.149583-.333343-.333335v-4.69583c0-.183886.149587-.333331.333335-.333331l5.44029-.00000394c.183874 0 .333319.149449.333319.333335l.00002362 4.69583c0 .183752-.149469.333335-.333343.333335z"/><path id="_491138096" d="m6.40013 1.765h-5.97359c-.036815 0-.066689-.0298622-.066689-.0666693 0-.0369449.0298622-.0666654.0666693-.0666654l5.97361-.00000394c.036815 0 .0666654.0297244.0666654.0666693.00002362.0368031-.0298583.0666693-.0666654.0666693z"/><path id="_491141816" d="m1.89791 1.31513h-.460406c-.036815 0-.066685-.0298583-.066685-.0666654.00002756-.0368071.0298583-.0666614.0666693-.0666614l.460421-.00000394c.036811 0 .0666614.0298622.0666614.0666654.00002756.0368071-.0298622.0666693-.0666614.0666654z"/><path id="_491136296" d="m1.72916 1.46305c-.0184685 0-.0369528-.00763386-.0501417-.0226378-.0242953-.0277795-.0215276-.0698583.00624803-.0941654l.111551-.0977795-.111531-.0977756c-.0277795-.0243031-.0305748-.0663858-.00626772-.0940276.0243307-.0277756.0663858-.0305551.0940276-.00625197l.168772.147917c.014437.0126378.0227559.0309724.0227559.0501378.00002756.0191654-.00833465.0375039-.0227756.0501417l-.168728.147913c-.0126575.0111102-.0283583.0165315-.0439094.0165276z"/><path id="_491144984" d="m1.1896 1.31513h-.460441c-.036937 0-.0666693-.0298583-.0666693-.0666654.00001575-.0368071.0297165-.0666614.0666654-.0666614l.460445-.00000394c.0367795 0 .0666378.0298622.0666378.0666654.00001575.0368071-.0298583.0666693-.0666378.0666654z"/><path id="_491114528" d="m.897783 1.46305c-.015563 0-.0312677-.00541339-.0439055-.0165276l-.168752-.147917c-.014437-.0126339-.0226378-.0309685-.0226378-.0501378.00001575-.0191654.00819291-.0375.0226339-.0501378l.168756-.147917c.0277795-.0243071.0698583-.0213858.0941654.00625197.0241772.0276378.0213898.0697244-.00624803.0940276l-.111512.0977756.111531.0977756c.027626.0243071.0303937.0663937.00622835.0941693-.0131654.015-.0316654.0226417-.0502598.0226378z"/><path id="_491139680" d="m2.20057 1.765c-.0369409 0-.0666929-.0298622-.0666929-.0666693l.00000394-.899583c0-.0368071.0297205-.0666654.0666654-.0666654.0368031-.00000394.0666654.0298583.0666654.0666654l.00001181.899583c0 .0368031-.029874.0666693-.0666535.0666693z"/><path id="_491123936" d="m4.12972 1.765c-.036811 0-.0666772-.0298622-.0666772-.0666693l.00002362-.899583c0-.0368071.0298386-.0666654.0666378-.0666654.0368307-.00000394.0666693.0298583.0666693.0666654l.00000394.899583c0 .0368031-.0298622.0666693-.0666575.0666693z"/><path id="_491121464" d="m5.93819 1.0943c-.085 0-.154173.0691693-.154173.154165.00001968.0850039.0691654.154169.154165.154169.0850079-.00000394.154165-.0691654.154165-.154169 0-.0849961-.0691654-.154165-.154157-.154165zm0 .441669c-.158469 0-.287512-.12889-.287512-.287504.00001181-.158469.129031-.2875.287504-.2875.158476 0 .2875.129031.2875.2875.00000787.15861-.129028.287504-.287492.287504z"/><path id="_491128520" d="m5.28404 1.0943c-.085 0-.154189.0691693-.154189.154165 0 .0850039.0691693.154169.154169.154169.0850197-.00000394.154165-.0691654.154165-.154169.00000787-.0849961-.0691654-.154165-.154146-.154165zm0 .441669c-.158626 0-.28752-.12889-.28752-.287504.00001968-.158469.12889-.2875.2875-.2875.158488 0 .2875.129031.2875.2875.00001968.15861-.129028.287504-.28748.287504z"/><path id="_491121512" d="m4.62972 1.0943c-.085 0-.154177.0691693-.154177.154165.00002362.0850039.0691654.154169.154161.154169.0851417-.00000394.154169-.0691654.154169-.154169.00000394-.0849961-.0690276-.154165-.154154-.154165zm0 .441669c-.158469 0-.287512-.12889-.287512-.287504.00001181-.158469.129028-.2875.287496-.2875.158642 0 .287504.129031.287504.2875.00001181.15861-.12889.287504-.287488.287504z"/><path id="_491115488" d="m5.0361 4.09333c-.00444094 0-.00875197-.00041732-.0131969-.00138976-.0360866-.00722047-.0595827-.0423583-.0522205-.0784685.0205709-.10278.0309685-.208335.0309685-.313752.00000787-.875835-.7125-1.58833-1.58833-1.58833-.875815-.00000394-1.58833.7125-1.58833 1.58833.00001575.105417.0104134.210972.0311102.313752.00724803.0361102-.016252.071252-.0523622.0784685-.0361102.0073622-.071248-.0161102-.0784724-.0522205-.0221969-.11139-.0336102-.225697-.0336102-.34.00000394-.949307.772362-1.72167 1.72167-1.72167.949307-.00000394 1.72167.772362 1.72167 1.72167.00001575.114303-.0113898.228614-.0336102.34-.00637402.0316654-.0341732.0536102-.0652795.0536102z"/><path id="_491117480" d="m1.90404 5.06541h-.113346c-.160563 0-.291118-.130551-.291118-.29111l.00002756-.523331c0-.160417.130524-.291114.291083-.291114h.113354c.036811 0 .0666417.0298622.0666417.0666654.00001181.0369488-.0298583.0666693-.0666614.0666693h-.113327c-.086937 0-.157787.0708346-.157787.15778l.00000787.523331c0 .0869449.0708268.157776.157772.157776h.113354c.036811 0 .0666417.0298661.0666417.0666693.00001181.0368071-.0298583.0666654-.0666417.0666654z"/><path id="_491121680" d="m2.6571 5.57361c-.00225197 0-.00461024-.0001378-.00697244-.00041732-.545248-.0563898-.92611-.292638-.92611-.574445.00001968-.0368071.0298622-.0666693.0666654-.0666693.0368228 0 .0666654.0298661.0666654.0666693 0 .204303.346669.394169.806531.441945.036689.00375197.0631929.0365276.0594409.0730551-.00359843.0343071-.0325.0598622-.0662205.0598622z"/><path id="_491123360" d="m2.89541 5.34708c-.0948425 0-.172091.0772244-.172091.172083.00002756.0948622.0772244.171945.172087.171945.094878 0 .172083-.0770827.172083-.171945.00001575-.0948622-.0772244-.172083-.172079-.172083zm0 .477358c-.168311 0-.305421-.136941-.305421-.305276.00001575-.168472.137083-.305417.305417-.305417.168346 0 .305413.136945.305413.305417.00002756.168335-.137083.305276-.305409.305276z"/><path id="_491113784" d="m4.18472 3.40736c-.031811 0-.0598701-.0227756-.0655709-.0552756-.00555118-.0319449-.0134724-.0640276-.0233307-.0948622-.00956693-.03.00291732-.0625.0301378-.0781969l.114732-.0661102-.099311-.172083-.114843.0663898c-.0272205.0156929-.061689.0102795-.0827992-.0129134-.101232-.111531-.23222-.187228-.378472-.218752-.0306654-.00666929-.0526417-.033752-.0526417-.0651417l.00000394-.132634h-.198591v.132634c0 .0313898-.0219606.0584724-.0526614.0651417-.146248.0315236-.277224.10722-.378472.218752-.0210866.0231929-.0555551.0286063-.0826378.0129134l-.11498-.0663898-.099311.172083.114717.0661102c.0272205.0156969.0397165.0481969.0301299.0780591-.00984646.0311102-.0177756.0630551-.0233307.095-.00623622.036248-.0408346.0605551-.0770866.0543071-.0362441-.00625197-.0605512-.0408346-.0543031-.0770866.00362205-.0202756.00791732-.0405551.0129173-.0606929l-.12748-.0736102c-.0152835-.0088937-.0264134-.0233346-.0309921-.0404173-.00457087-.0170866-.00222441-.0352756.00666535-.0506969l.16598-.2875c.00875197-.0152795.0233268-.0263898.0404094-.0309685.0170906-.00458661.0352756-.00222441.0505551.00666535l.127661.0736102c.101252-.0983346.223728-.169169.358866-.207362l.00000787-.14722c0-.0368071.0298543-.0666654.0666614-.0666654l.331965-.00000394c.0367835 0 .0666457.0298622.0666457.0666693l.00001181.14722c.135154.0381929.257626.109028.358874.207362l.127657-.0736102c.0152795-.00888976.0334567-.011252.0505394-.00666535.0170827.00457874.0316654.0156929.0405551.0309724l.166.287496c.00874803.0154173.0110787.0336102.0065.0506969-.00456299.0170787-.0156969.0315276-.0309724.0404173l-.1275.0736102c.00515748.02.00930709.0404173.0129173.0606929.00627165.036252-.0180551.0708346-.0543071.0770866-.00388976.00069291-.0076378.00097244-.0115157.0009685zm-.605406 1.09986h-.331937c-.036811 0-.0666969-.0298622-.0666969-.0666654l.00000787-.147087c-.135122-.0383346-.257646-.109165-.358898-.2075l-.127634.073752c-.031811.0183346-.0726417.0075-.0909764-.0244449l-.165961-.2875c-.00887402-.0152795-.0112598-.0334724-.00667717-.0505551.00458268-.0170866.0156929-.0316693.0309724-.0405551l.12752-.0734724c-.005-.0201378-.00932677-.0404173-.012937-.0606929-.00622047-.036252.0180551-.0708346.0543031-.0770827.0362559-.00638976.0708346.0179173.0770866.0541654.00557874.0320827.0134724.0640276.0233307.095.00959055.0298583-.00291732.0623622-.0301378.0780551l-.114709.066248.099311.171945.115-.066248c.027063-.0156969.0615118-.0104173.0826181.0129173.101256.111528.232224.187083.378472.218748.0307244.00652756.0526417.033748.0526417.0651378l.00001968.1325h.198591v-.1325c0-.0313898.0219449-.0584724.0526378-.0651378.146394-.0315276.277224-.10722.378614-.218748.021126-.0231969.0554134-.0286142.0826378-.0129173l.114862.066248.099311-.171945-.114717-.066252c-.0272205-.0156929-.0397362-.0481929-.0301535-.0780512.00987008-.0309724.0177795-.0629173.0233307-.095.00641732-.036252.0408386-.0605551.0772244-.0541654.036252.00624803.0604173.0408307.0541693.0770827-.00360236.0202756-.00791732.0405551-.0129213.0606929l.127504.0734724c.0152835.00888583.0263898.0234724.0309724.0405551.00459055.0170827.00222047.0352795-.00652362.0505551l-.165976.2875c-.00887795.0152795-.0234764.0265276-.0405551.0311102-.0170709.00444488-.0352795.00208268-.0505551-.00666535l-.127642-.073752c-.101094.0984764-.22361.169169-.358886.2075l.00001181.147087c0 .0368031-.029874.0666654-.0666575.0666654z"/><path id="_491126792" d="m3.80569 3.40736c-.027622 0-.0534803-.0173583-.063063-.0449961-.048311-.140421-.180693-.234724-.329307-.234724-.148598 0-.280969.0943071-.329303.234724-.0120748.0348583-.0498622.0533307-.0847244.0413858-.0348504-.0119449-.0533307-.05-.0413858-.0847205.0669724-.194307.249858-.32472.455413-.32472.205559-.00000394.388472.130413.455417.32472.0119528.0347205-.0065315.0727756-.041248.0847205-.00720472.0025-.0145827.00361417-.0217992.00361024zm-.392343.550138c-.205563 0-.388496-.130551-.455441-.32472-.0119331-.0348583.00652756-.0727756.0413858-.0847205.0347441-.0120827.0727795.00652756.0847244.041248.0483622.140417.180693.234862.329303.234862.148622 0 .280972-.0944449.329307-.234862.0120945-.0347244.0498622-.0533307.0848622-.041248.0347323.0119449.0531929.0498622.041248.0847205-.0669213.194169-.249858.324724-.45539.32472z"/><path id="_491113856" d="m2.45791 3.5443h1.91084c.021937 0 .0423465.0106969.0548465.028752.034311.0493031.0801378.0733346.140138.0733346.0286102-.00000394.0575-.00847638.0831929-.0230591l-.0377717-.00597244c-.0648425-.0104173-.112083-.0655551-.112083-.131248l.00002362-.0204173c0-.0658346.0471929-.120972.112051-.131248l.0377913-.00597638c-.025689-.0145787-.0545945-.0231929-.0832047-.0231929-.0599843 0-.105831.0240276-.140138.0734724-.0125.0179173-.0329213.0286142-.0548622.0286142l-1.91083-.00000394c-.021811 0-.0423661-.0106929-.0547283-.0286102-.0344291-.0494449-.0802756-.0734724-.140276-.0734724-.0285906 0-.0575.00861417-.0831969.0231929l.0377953.00597638c.065.0102756.112067.0654173.112067.131248l.00002756.0204173c0 .0656929-.0471102.120831-.11211.131248l-.0377677.00597244c.025689.0145827.0547087.0230591.083185.0230591.0600039-.00000394.105831-.0240276.140276-.0733346.0123858-.0180551.0329173-.028752.0547283-.028752zm2.10584.235417c-.0916535 0-.169602-.0351417-.227516-.102083h-1.84583c-.0577835.0669409-.135835.102083-.227504.102083-.113591 0-.226807-.0718071-.275142-.17472-.00888583-.0190315-.00847244-.0411102.00138976-.0595827.00988189-.0184764.0277795-.0313898.0484724-.0347244l.159031-.0251378-.00040551-.0198622-.158626-.0247205c-.020685-.00333465-.0386102-.0161102-.0484724-.0345827-.00983858-.0186142-.0102756-.0406969-.00138976-.0595866.0483346-.102917.161528-.174862.275142-.174862.0916929 0 .169717.0351417.2275.102087h1.84585c.0579055-.0669488.135819-.102087.227484-.102087.113642 0 .226807.0719488.275138.174862.00903543.0188898.00847638.0409724-.00138583.0595866-.0098622.0184685-.0277795.031248-.0484724.0345827l-.159012.0251378.00040551.02.158626.0245827c.020685.00333465.0385866.0161102.0484528.0347244.00988976.0184724.0104173.0405512.00138583.0595827-.0483071.102913-.161386.17472-.275122.17472z"/><path id="_491135864" d="m1.97069 4.99097h.150689v-.956531h-.150689zm.180283.133331h-.20972c-.057374 0-.103902-.0465236-.103902-.10389l.00002756-1.01556c0-.0572205.0464961-.103748.103858-.103748l.209736-.00000394c.0572165 0 .103732.0465315.103732.103756l.00001575 1.01555c0 .0573661-.0465394.10389-.103748.10389z"/><path id="_491142560" d="m4.70528 4.99097h.150689v-.956531h-.150689zm.180283.133331h-.20972c-.057374 0-.103913-.0465236-.103913-.10389l.00000787-1.01556c0-.0572205.0465197-.103748.103878-.103748l.209748-.00000394c.0572165 0 .103724.0465315.103724.103756l.00002362 1.01555c0 .0573661-.0465512.10389-.103748.10389z"/><path id="_491144480" d="m5.03597 5.06541h-.113346c-.0367795 0-.0666654-.0298583-.0666654-.0666654.00001181-.0368071.0298622-.0666693.0666614-.0666693h.11335c.0870945 0 .157764-.0708307.157764-.157776l.00001575-.523331c0-.0869449-.0707087-.15778-.157795-.15778h-.113331c-.0367795 0-.0666654-.0297205-.0666654-.0666693.00001181-.0368031.0298622-.0666654.0666614-.0666654h.11335c.160563 0 .291102.130697.291102.291114l.00002362.523331c0 .160559-.130583.29111-.291126.29111z"/></g></g></svg>