<svg version="1.1" id="Capa_1" xmlns="http://www.w3.org/2000/svg" xmlns:xlink="http://www.w3.org/1999/xlink" x="0px" y="0px" viewBox="0 0 512 512" style="enable-background:new 0 0 512 512;" xml:space="preserve">
<g>
	
		<polyline style="fill:none;stroke:#000000;stroke-width:15;stroke-linecap:round;stroke-linejoin:round;stroke-miterlimit:10;" points="&#10;&#9;&#9;241.008,126.382 272.257,157.631 327.108,102.78 &#9;"/>
	<path style="fill:none;stroke:#000000;stroke-width:15;stroke-linecap:round;stroke-linejoin:round;stroke-miterlimit:10;" d="&#10;&#9;&#9;M338.79,448.428v29.065c0,10.52-8.53,19.06-19.06,19.06H26.56c-10.53,0-19.06-8.54-19.06-19.06v-290.63c0-9.39,7.61-17,17-17&#10;&#9;&#9;h162.14"/>
	
		<line style="fill:none;stroke:#000000;stroke-width:15;stroke-linecap:round;stroke-linejoin:round;stroke-miterlimit:10;" x1="338.79" y1="217.914" x2="338.79" y2="413.242"/>
	
		<polyline style="fill:none;stroke:#000000;stroke-width:15;stroke-linecap:round;stroke-linejoin:round;stroke-miterlimit:10;" points="&#10;&#9;&#9;204.29,196.224 204.29,274.614 142,274.614 142,169.864 186.64,169.864 &#9;"/>
	<g>
		<path style="fill:none;stroke:#000000;stroke-width:15;stroke-linecap:round;stroke-linejoin:round;stroke-miterlimit:10;" d="&#10;&#9;&#9;&#9;M301.16,15.446c22.291,3.314,43.752,13.55,60.911,30.709c42.533,42.531,42.533,111.488,0,154.019s-111.492,42.531-154.025,0&#10;&#9;&#9;&#9;s-42.533-111.488,0-154.019c16.364-16.364,36.641-26.432,57.819-30.204"/>
		<path style="fill:none;stroke:#000000;stroke-width:15;stroke-linecap:round;stroke-linejoin:round;stroke-miterlimit:10;" d="&#10;&#9;&#9;&#9;M285.058,205.058c-21.876,0-42.442-8.518-57.91-23.986c-31.932-31.93-31.932-83.885,0-115.815&#10;&#9;&#9;&#9;c15.468-15.468,36.034-23.986,57.91-23.986c21.875,0,42.441,8.519,57.91,23.986c31.932,31.93,31.932,83.885,0,115.815&#10;&#9;&#9;&#9;C327.499,196.54,306.934,205.058,285.058,205.058z"/>
		<path style="fill:none;stroke:#000000;stroke-width:15;stroke-linecap:round;stroke-linejoin:round;stroke-miterlimit:10;" d="&#10;&#9;&#9;&#9;M500.36,325.211l-13.248,13.248c-5.519,5.519-14.468,5.519-19.987,0l-86.287-86.284c-5.52-5.519-5.52-14.468,0-19.988&#10;&#9;&#9;&#9;l13.248-13.248c5.519-5.519,14.468-5.519,19.987,0l86.287,86.284C505.88,310.743,505.88,319.692,500.36,325.211z"/>
		
			<line style="fill:none;stroke:#000000;stroke-width:15;stroke-linecap:round;stroke-linejoin:round;stroke-miterlimit:10;" x1="362.071" y1="200.174" x2="387.462" y2="225.564"/>
	</g>
	<g>
		<g>
			<path style="fill:none;stroke:#000000;stroke-width:15;stroke-linecap:round;stroke-linejoin:round;stroke-miterlimit:10;" d="&#10;&#9;&#9;&#9;&#9;M280.518,372.856c-5.985-4.044-13.201-6.405-20.967-6.405c-20.711,0-37.501,16.79-37.501,37.501&#10;&#9;&#9;&#9;&#9;c0,20.711,16.79,37.501,37.501,37.501c8.412,0,15.331-2.769,20.582-7.446c1.086-0.968,2.102-2.017,3.044-3.14"/>
		</g>
		<g>
			
				<line style="fill:none;stroke:#000000;stroke-width:15;stroke-linecap:round;stroke-linejoin:round;stroke-miterlimit:10;" x1="170.807" y1="417.157" x2="194.801" y2="441.151"/>
			
				<circle style="fill:none;stroke:#000000;stroke-width:15;stroke-linecap:round;stroke-linejoin:round;stroke-miterlimit:10;" cx="157.01" cy="403.953" r="37.501"/>
		</g>
		<path style="fill:none;stroke:#000000;stroke-width:15;stroke-linecap:round;stroke-linejoin:round;stroke-miterlimit:10;" d="&#10;&#9;&#9;&#9;M87.032,341.209l4.691,9.506l10.49,1.524c3.63,0.527,5.079,4.988,2.453,7.549l-7.591,7.399l1.792,10.448&#10;&#9;&#9;&#9;c0.62,3.615-3.175,6.372-6.421,4.665l-9.383-4.933l-9.383,4.933c-3.247,1.707-7.041-1.05-6.421-4.665l1.792-10.448l-7.591-7.399&#10;&#9;&#9;&#9;c-2.627-2.56-1.177-7.021,2.453-7.549l10.49-1.524l4.691-9.506C80.718,337.92,85.409,337.92,87.032,341.209z"/>
	</g>
</g>
<g>
</g>
<g>
</g>
<g>
</g>
<g>
</g>
<g>
</g>
<g>
</g>
<g>
</g>
<g>
</g>
<g>
</g>
<g>
</g>
<g>
</g>
<g>
</g>
<g>
</g>
<g>
</g>
<g>
</g>
</svg>