<?xml version="1.0"?>
<svg xmlns="http://www.w3.org/2000/svg" id="Bahan" viewBox="0 0 64 64"><path d="M57.36,36.85a14.46,14.46,0,0,0-8.74-4.73v-.88a2.36,2.36,0,0,0,0-4.71H44.34a2.36,2.36,0,0,0,0,4.71v.88a14.37,14.37,0,0,0-9.72,6h-2a1,1,0,0,0,0,2h2.56a1.06,1.06,0,0,0,.77-.39c9-13.43,29.2-1.2,21.43,13A1,1,0,0,0,57,51.36l-.8-.46a1,1,0,0,0-1,1.73c.26.13,1,.65,1.3.6a1,1,0,0,0,.85-.48,12.51,12.51,0,0,1-4.56,4.55A1,1,0,0,0,53.1,56l-.46-.81a1,1,0,0,0-1.74,1c.33.67.91,1.71,1.82,1.18a12.49,12.49,0,0,1-13.26-.47,1.3,1.3,0,0,0-.57-.17H34a1,1,0,0,0,0,2h4.65C52.92,67.53,68.25,49.63,57.36,36.85Zm-11-4.9s0-.71,0-.71h.3V32ZM44,28.89a.36.36,0,0,1,.35-.36h4.27a.36.36,0,0,1,0,.71H45.32C44.87,29.19,44,29.43,44,28.89Zm1.48,7V35a1,1,0,0,1,2,0v.92A1,1,0,0,1,45.47,35.88ZM42,36.8a1,1,0,0,1-1.73,1l-.46-.8a1,1,0,0,1,1.73-1Zm-3.87,4.88A1,1,0,0,1,36.8,42l-.8-.46a1,1,0,0,1-.37-1.37A1,1,0,0,1,37,39.85l.8.46A1,1,0,0,1,38.17,41.68Zm-5.35,3.79h2.7a1,1,0,0,1,0,2h-2.7A1,1,0,0,1,32.82,45.47Zm-2.63,2h-.68a1,1,0,0,1,0-2h.68A1,1,0,0,1,30.19,47.47Zm.32,3.25a1,1,0,0,1,1-1H37a1,1,0,0,1,0,2H31.51A1,1,0,0,1,30.51,50.72Zm4.74-9.27a1,1,0,0,1-1,1H29.77a1,1,0,1,1,0-2h4.48A1,1,0,0,1,35.25,41.45ZM33.83,55a1,1,0,0,1,1-1h3.82a1,1,0,1,1,0,2H34.83A1,1,0,0,1,33.83,55Zm6,1,.46-.81a1,1,0,0,1,1.73,1l-.46.81A1,1,0,0,1,39.85,56Zm6.62.11a1,1,0,0,1,1,1V58a1,1,0,1,1-2,0v-.93A1,1,0,0,1,46.47,56.06Zm10.6-10.59H58a1,1,0,0,1,0,2h-.92A1,1,0,0,1,57.07,45.47Zm.24-5.26A1,1,0,0,1,57,41.58l-.8.46a1,1,0,1,1-1-1.73l.8-.46A1,1,0,0,1,57.31,40.21ZM50.9,36.8l.47-.8a1,1,0,0,1,1.73,1l-.46.8A1,1,0,0,1,50.9,36.8Zm-5.43,7.05a2.87,2.87,0,0,0-1.62,1.62H41a1,1,0,0,0,0,2h2.9a2.81,2.81,0,1,0,3.62-3.62V38.36a1,1,0,0,0-2,0Zm1,3.44a.82.82,0,0,1,0-1.63A.82.82,0,0,1,46.47,47.29ZM33.13,55a1,1,0,0,1-1,1h-.79a1,1,0,0,1,0-2h.79A1,1,0,0,1,33.13,55Zm-2.69,4C24,51,25,38.34,32.68,31.52a20.45,20.45,0,0,1,26.6-.85,1,1,0,0,0,1.63-.85C57-7,4.26-5.15,3,32,2.74,46.75,15.07,60.1,29.83,60.92,31,60.91,31.21,59.71,30.44,59ZM24.2,48.15a22.48,22.48,0,0,0,2.18,8.11A21.83,21.83,0,0,1,21.94,49,22.44,22.44,0,0,1,24.2,48.15Zm-.05-2a26.38,26.38,0,0,0-2.88,1A48,48,0,0,1,19,33h9.63A22.29,22.29,0,0,0,24.15,46.1ZM15.07,11A26.59,26.59,0,0,1,25.48,5.81a22.69,22.69,0,0,0-5.37,8.41A22.43,22.43,0,0,1,15.07,11Zm24-5a27,27,0,0,1,9.82,5,24,24,0,0,1-5,3.24,22.69,22.69,0,0,0-5.37-8.41C38.72,5.86,38.92,5.89,39.12,6Zm5.32,18.27A22.69,22.69,0,0,0,33,28.66V19a29,29,0,0,0,9.73-2.05A43.42,43.42,0,0,1,44.44,24.22ZM42.06,15A27.14,27.14,0,0,1,33,17V5.08C36.48,5.67,39.8,9.31,42.06,15ZM31,5.09V17A27.14,27.14,0,0,1,21.94,15C24.2,9.31,27.51,5.67,31,5.09ZM31,19V30.36l-.64.64H19a48.17,48.17,0,0,1,2.24-14.07A29.14,29.14,0,0,0,31,19Zm27.66,8.76a22.48,22.48,0,0,0-12.22-3.61,45.9,45.9,0,0,0-1.87-8,28.76,28.76,0,0,0,5.9-3.79A26.71,26.71,0,0,1,58.66,27.74ZM13.52,12.33a28.81,28.81,0,0,0,5.9,3.8A50.07,50.07,0,0,0,17,31H5A27,27,0,0,1,13.52,12.33ZM5,33H17a49.87,49.87,0,0,0,2.41,14.88,29.41,29.41,0,0,0-5.91,3.79A27,27,0,0,1,5,33ZM16.42,54c-.47-.33-.92-.69-1.37-1.06a27.87,27.87,0,0,1,5.05-3.22,22.8,22.8,0,0,0,5.41,8.45A26.27,26.27,0,0,1,16.42,54Z"/></svg>
