<svg id="Layer_1" enable-background="new 0 0 512 512" viewBox="0 0 512 512" xmlns="http://www.w3.org/2000/svg"><path d="m194.48 312.66c13.37 11.7 20.15 26.64 20.15 44.47v28.15c0 18.83 15.32 34.15 34.15 34.15h7.92c18.83 0 34.15-15.32 34.15-34.15v-11.98c0-1.37-.47-2.7-1.33-3.76l-11.52-14.31 1.29-15.77c6.71-1.87 13.15-4.54 19.23-7.97l13.9 11.79c2.38 2.02 5.92 1.88 8.12-.33l22.39-22.39c2.21-2.21 2.35-5.74.33-8.12l-11.79-13.9c3.43-6.08 6.1-12.52 7.97-19.23l18.16-1.49c3.11-.25 5.51-2.86 5.51-5.98v-31.66c0-3.12-2.4-5.72-5.51-5.98l-18.16-1.49c-1.87-6.71-4.54-13.15-7.97-19.23l11.79-13.9c2.02-2.38 1.88-5.92-.33-8.12l-22.39-22.39c-2.21-2.21-5.74-2.35-8.12-.33l-13.9 11.79c-6.08-3.43-12.51-6.1-19.23-7.97l-1.49-18.16c-.25-3.11-2.86-5.51-5.98-5.51h-15.82c-51.52 0-93.44 41.92-93.44 93.44 0 26.93 11.63 52.57 31.92 70.33zm62.23 94.77h-7.92c-10.13 0-18.7-6.84-21.32-16.15h50.56c-2.63 9.3-11.19 16.15-21.32 16.15zm10.98-229.62c.21 2.62 2.11 4.79 4.67 5.36 8.37 1.87 16.29 5.16 23.56 9.76 2.22 1.41 5.09 1.21 7.09-.49l12.96-10.99 14.57 14.57-10.99 12.96c-1.7 2-1.9 4.88-.49 7.1 4.61 7.26 7.89 15.18 9.76 23.56.57 2.56 2.75 4.45 5.36 4.67l16.93 1.39v20.61l-16.93 1.39c-2.62.21-4.79 2.11-5.36 4.67-1.87 8.37-5.16 16.29-9.76 23.56-1.41 2.22-1.21 5.09.49 7.09l10.99 12.96-14.57 14.57-12.96-10.99c-2-1.7-4.88-1.9-7.1-.49-7.26 4.6-15.18 7.89-23.56 9.76-2.56.57-4.46 2.75-4.67 5.36l-1.39 16.93h-4.29v-47.23c23.8-2.97 42.28-23.3 42.28-47.89s-18.48-44.93-42.28-47.89v-47.23h4.3zm-5.69 113.97v-71.55c17.16 2.87 30.28 17.81 30.28 35.78s-13.12 32.9-30.28 35.77zm6.96 71.34 9.9 12.29v3.86h-52.22v-16.15h29.36zm-18.96-202.03v190.03h-23.59c-1.44-18.61-9.67-34.93-24.02-47.5-17.69-15.48-27.83-37.83-27.83-61.31 0-42.88 33.32-78.13 75.44-81.22zm6-24.42c-3.31 0-6-2.69-6-6v-11.31c0-3.31 2.69-6 6-6s6 2.69 6 6v11.31c0 3.31-2.69 6-6 6zm59.66 15.99c-2.87-1.66-3.85-5.33-2.2-8.2l5.66-9.8c1.66-2.87 5.32-3.85 8.2-2.2 2.87 1.66 3.85 5.33 2.2 8.2l-5.66 9.8c-1.11 1.92-3.13 3-5.2 3-1.02 0-2.05-.26-3-.8zm63.87 32.02c1.66 2.87.67 6.54-2.2 8.2l-9.8 5.66c-.95.55-1.98.8-2.99.8-2.07 0-4.09-1.08-5.2-3-1.66-2.87-.67-6.54 2.2-8.2l9.8-5.66c2.87-1.66 6.54-.67 8.19 2.2zm1.8 77.32c-3.31 0-6-2.69-6-6s2.69-6 6-6h11.31c3.31 0 6 2.69 6 6s-2.69 6-6 6zm-3.99 57.12c2.87 1.66 3.85 5.33 2.2 8.2-1.11 1.92-3.13 3-5.2 3-1.02 0-2.05-.26-2.99-.8l-9.8-5.66c-2.87-1.66-3.85-5.33-2.2-8.2 1.66-2.87 5.33-3.85 8.2-2.2zm-53.48 42.42 5.66 9.8c1.66 2.87.67 6.54-2.2 8.2-.95.54-1.98.8-2.99.8-2.07 0-4.09-1.08-5.2-3l-5.66-9.8c-1.66-2.87-.67-6.54 2.2-8.2 2.87-1.65 6.53-.67 8.19 2.2zm-127.53-2.2c2.87 1.66 3.85 5.33 2.2 8.2l-5.66 9.8c-1.11 1.92-3.13 3-5.2 3-1.02 0-2.05-.26-2.99-.8-2.87-1.66-3.85-5.33-2.2-8.2l5.66-9.8c1.66-2.87 5.32-3.85 8.19-2.2zm-43.67-43.68c1.66 2.87.67 6.54-2.2 8.2l-9.8 5.66c-.94.54-1.98.8-2.99.8-2.07 0-4.09-1.08-5.2-3-1.66-2.87-.67-6.54 2.2-8.2l9.8-5.66c2.86-1.65 6.53-.67 8.19 2.2zm-21.99-65.66c3.31 0 6 2.69 6 6s-2.69 6-6 6h-11.31c-3.31 0-6-2.69-6-6s2.69-6 6-6zm21.99-53.67c-1.11 1.92-3.13 3-5.2 3-1.02 0-2.05-.26-2.99-.8l-9.8-5.66c-2.87-1.66-3.85-5.33-2.2-8.2 1.66-2.87 5.33-3.85 8.2-2.2l9.8 5.66c2.86 1.67 3.84 5.34 2.19 8.2zm35.48-45.87-5.66-9.8c-1.66-2.87-.67-6.54 2.2-8.2s6.54-.67 8.2 2.2l5.66 9.8c1.66 2.87.67 6.54-2.2 8.2-.95.55-1.98.8-2.99.8-2.08 0-4.1-1.07-5.21-3zm67.86-135.46c-132.89 0-241 108.11-241 241s108.11 241 241 241 241-108.11 241-241-108.11-241-241-241zm0 470c-126.27 0-229-102.73-229-229s102.73-229 229-229 229 102.73 229 229-102.73 229-229 229zm175.69-164.96c-.89 2.43-3.19 3.94-5.64 3.94-.68 0-1.38-.12-2.06-.37-3.11-1.14-4.71-4.58-3.58-7.7 12.38-33.87 13.97-70.25 4.6-105.21-12.1-45.15-41.05-82.88-81.53-106.25s-87.63-29.58-132.78-17.48c-30.26 8.11-57.4 23.91-79.17 45.98l16.19-.85c3.3-.15 6.13 2.37 6.31 5.68.17 3.31-2.37 6.13-5.67 6.31l-30.76 1.62c-.11.01-.21.01-.32.01-3.17 0-5.82-2.48-5.99-5.68l-1.62-30.76c-.17-3.31 2.37-6.13 5.67-6.31 3.32-.17 6.13 2.37 6.31 5.68l.86 16.37c23.34-23.84 52.52-40.91 85.08-49.63 99.59-26.69 202.32 32.63 229.01 132.22 10.02 37.35 8.32 76.23-4.91 112.43zm-29.37 82.68c.17 3.31-2.37 6.13-5.67 6.31-.11.01-.21.01-.32.01-3.17 0-5.82-2.48-5.99-5.68l-.86-16.37c-23.34 23.84-52.54 40.91-85.08 49.63-16.14 4.33-32.38 6.39-48.35 6.39-82.55 0-158.29-55.16-180.65-138.61-10.01-37.36-8.31-76.24 4.92-112.44 1.14-3.11 4.58-4.71 7.7-3.58 3.11 1.14 4.71 4.58 3.58 7.69-12.38 33.87-13.97 70.25-4.6 105.21 20.9 78.09 91.79 129.72 169.04 129.72 14.95 0 30.13-1.93 45.25-5.98 30.23-8.1 57.37-23.92 79.13-45.98l-16.16.85c-3.3.18-6.13-2.37-6.31-5.67-.17-3.31 2.37-6.13 5.67-6.31l30.76-1.62c3.32-.17 6.13 2.37 6.31 5.67z"/></svg>