<?xml version="1.0" encoding="UTF-8" standalone="no"?>
<!-- Created with Inkscape (http://www.inkscape.org/) -->

<svg
   version="1.1"
   id="svg3891"
   xml:space="preserve"
   width="682.66669"
   height="682.66669"
   viewBox="0 0 682.66669 682.66669"
   xmlns="http://www.w3.org/2000/svg"
   xmlns:svg="http://www.w3.org/2000/svg"><defs
     id="defs3895"><clipPath
       clipPathUnits="userSpaceOnUse"
       id="clipPath3905"><path
         d="M 0,512 H 512 V 0 H 0 Z"
         id="path3903" /></clipPath></defs><g
     id="g3897"
     transform="matrix(1.3333333,0,0,-1.3333333,0,682.66667)"><g
       id="g3899"><g
         id="g3901"
         clip-path="url(#clipPath3905)"><g
           id="g3907"
           transform="translate(424.1719,438.9614)"><path
             d="m 0,0 c 2.554,-2.351 5.07,-4.764 7.548,-7.241 97.04,-97.051 97.04,-254.39 0,-351.44 -74.41,-74.401 -184.26,-91.761 -275.21,-52.07"
             style="fill:none;stroke:#000000;stroke-width:15;stroke-linecap:round;stroke-linejoin:round;stroke-miterlimit:10;stroke-dasharray:none;stroke-opacity:1"
             id="path3909" /></g><g
           id="g3911"
           transform="translate(28.21,156.5098)"><path
             d="m 0,0 c -39.69,90.95 -22.33,200.8 52.07,275.21 87.951,87.943 225.418,96.187 322.655,24.734"
             style="fill:none;stroke:#000000;stroke-width:15;stroke-linecap:round;stroke-linejoin:round;stroke-miterlimit:10;stroke-dasharray:none;stroke-opacity:1"
             id="path3913" /></g><g
           id="g3915"
           transform="translate(48.9141,214.2969)"><path
             d="m 0,0 c -13.424,66.956 5.82,139.158 57.727,191.063 82.489,82.49 216.229,82.49 298.718,0 82.491,-82.49 82.491,-216.23 0,-298.72 -60.769,-60.77 -149.359,-76.77 -224.779,-47.989 5.92,12.08 9.23,25.649 9.23,40 0,0.529 0,1.059 -0.02,1.58 -0.84,49.619 -41.32,89.58 -91.14,89.58 -14.35,0 -27.92,-3.311 -40,-9.231"
             style="fill:none;stroke:#000000;stroke-width:15;stroke-linecap:round;stroke-linejoin:round;stroke-miterlimit:10;stroke-dasharray:none;stroke-opacity:1"
             id="path3917" /></g><g
           id="g3919"
           transform="translate(147.1904,253.9697)"><path
             d="m 0,0 c -0.08,0.641 -0.12,1.31 -0.12,2.03 0,27.91 10.63,55.82 31.87,77.06 42.489,42.49 111.63,42.49 154.119,0 L 164.659,57.88 C 149.26,73.271 129.029,80.97 108.81,80.97 88.579,80.97 68.359,73.271 52.96,57.88 37.939,42.85 30.239,23.22 29.89,3.49"
             style="fill:none;stroke:#000000;stroke-width:15;stroke-linecap:round;stroke-linejoin:round;stroke-miterlimit:10;stroke-dasharray:none;stroke-opacity:1"
             id="path3921" /></g><g
           id="g3923"
           transform="translate(256,256)"><path
             d="m 0,0 55.85,55.85 21.21,21.21 46.41,46.41"
             style="fill:none;stroke:#000000;stroke-width:15;stroke-linecap:round;stroke-linejoin:round;stroke-miterlimit:10;stroke-dasharray:none;stroke-opacity:1"
             id="path3925" /></g><g
           id="g3927"
           transform="translate(140.1543,371.8457)"><path
             d="M 0,0 -7.62,7.621"
             style="fill:none;stroke:#000000;stroke-width:15;stroke-linecap:round;stroke-linejoin:round;stroke-miterlimit:10;stroke-dasharray:none;stroke-opacity:1"
             id="path3929" /></g><g
           id="g3931"
           transform="translate(379.4658,132.5342)"><path
             d="M 0,0 -7.62,7.62"
             style="fill:none;stroke:#000000;stroke-width:15;stroke-linecap:round;stroke-linejoin:round;stroke-miterlimit:10;stroke-dasharray:none;stroke-opacity:1"
             id="path3933" /></g><g
           id="g3935"
           transform="translate(371.8457,371.8457)"><path
             d="M 0,0 7.62,7.621"
             style="fill:none;stroke:#000000;stroke-width:15;stroke-linecap:round;stroke-linejoin:round;stroke-miterlimit:10;stroke-dasharray:none;stroke-opacity:1"
             id="path3937" /></g><g
           id="g3939"
           transform="translate(256,419.8311)"><path
             d="M 0,0 V 10.776"
             style="fill:none;stroke:#000000;stroke-width:15;stroke-linecap:round;stroke-linejoin:round;stroke-miterlimit:10;stroke-dasharray:none;stroke-opacity:1"
             id="path3941" /></g><g
           id="g3943"
           transform="translate(256,81.3926)"><path
             d="M 0,0 V 10.776"
             style="fill:none;stroke:#000000;stroke-width:15;stroke-linecap:round;stroke-linejoin:round;stroke-miterlimit:10;stroke-dasharray:none;stroke-opacity:1"
             id="path3945" /></g><g
           id="g3947"
           transform="translate(419.8311,256)"><path
             d="M 0,0 H 10.776"
             style="fill:none;stroke:#000000;stroke-width:15;stroke-linecap:round;stroke-linejoin:round;stroke-miterlimit:10;stroke-dasharray:none;stroke-opacity:1"
             id="path3949" /></g><g
           id="g3951"
           transform="translate(81.3926,256)"><path
             d="M 0,0 H 10.776"
             style="fill:none;stroke:#000000;stroke-width:15;stroke-linecap:round;stroke-linejoin:round;stroke-miterlimit:10;stroke-dasharray:none;stroke-opacity:1"
             id="path3953" /></g><g
           id="g3955"
           transform="translate(194.7012,407.9307)"><path
             d="M 0,0 -4.032,9.994"
             style="fill:none;stroke:#000000;stroke-width:15;stroke-linecap:round;stroke-linejoin:round;stroke-miterlimit:10;stroke-dasharray:none;stroke-opacity:1"
             id="path3957" /></g><g
           id="g3959"
           transform="translate(321.3311,94.0752)"><path
             d="M 0,0 -4.032,9.994"
             style="fill:none;stroke:#000000;stroke-width:15;stroke-linecap:round;stroke-linejoin:round;stroke-miterlimit:10;stroke-dasharray:none;stroke-opacity:1"
             id="path3961" /></g><g
           id="g3963"
           transform="translate(407.9307,317.2993)"><path
             d="M 0,0 9.994,4.032"
             style="fill:none;stroke:#000000;stroke-width:15;stroke-linecap:round;stroke-linejoin:round;stroke-miterlimit:10;stroke-dasharray:none;stroke-opacity:1"
             id="path3965" /></g><g
           id="g3967"
           transform="translate(320.0859,406.7764)"><path
             d="M 0,0 4.216,9.918"
             style="fill:none;stroke:#000000;stroke-width:15;stroke-linecap:round;stroke-linejoin:round;stroke-miterlimit:10;stroke-dasharray:none;stroke-opacity:1"
             id="path3969" /></g><g
           id="g3971"
           transform="translate(406.7764,191.9141)"><path
             d="M 0,0 9.918,-4.216"
             style="fill:none;stroke:#000000;stroke-width:15;stroke-linecap:round;stroke-linejoin:round;stroke-miterlimit:10;stroke-dasharray:none;stroke-opacity:1"
             id="path3973" /></g><g
           id="g3975"
           transform="translate(95.3057,324.3018)"><path
             d="M 0,0 9.918,-4.216"
             style="fill:none;stroke:#000000;stroke-width:15;stroke-linecap:round;stroke-linejoin:round;stroke-miterlimit:10;stroke-dasharray:none;stroke-opacity:1"
             id="path3977" /></g><g
           id="g3979"
           transform="translate(256,256)"><path
             d="m 0,0 55.85,-55.85 10.6,-10.6 10.61,-10.61 46.41,-46.41"
             style="fill:none;stroke:#000000;stroke-width:15;stroke-linecap:round;stroke-linejoin:round;stroke-miterlimit:10;stroke-dasharray:none;stroke-opacity:1"
             id="path3981" /></g><g
           id="g3983"
           transform="translate(200.2842,260.1631)"><path
             d="m 0,0 c 1.133,0.132 1.95,-1.059 1.42,-2.068 l -15.163,-28.87 -15.887,-30.243 c -0.463,-0.885 -1.672,-1.028 -2.328,-0.274 l -43.806,50.392 c -0.748,0.861 -0.226,2.208 0.907,2.339 z"
             style="fill:none;stroke:#000000;stroke-width:15;stroke-linecap:round;stroke-linejoin:round;stroke-miterlimit:10;stroke-dasharray:none;stroke-opacity:1"
             id="path3985" /></g><g
           id="g3987"
           transform="translate(58.6504,180.5801)"><path
             d="m 0,0 c -11.801,-5.771 -22.181,-14.021 -30.44,-24.07 -12.941,-15.741 -20.71,-35.9 -20.71,-57.86 0,-50.341 40.809,-91.15 91.15,-91.15 21.96,0 42.119,7.769 57.859,20.71 10.05,8.26 18.3,18.64 24.071,30.44"
             style="fill:none;stroke:#000000;stroke-width:15;stroke-linecap:round;stroke-linejoin:round;stroke-miterlimit:10;stroke-dasharray:none;stroke-opacity:1"
             id="path3989" /></g><g
           id="g3991"
           transform="translate(53.9609,104.0996)"><path
             d="m 0,0 c 1.089,9.432 5.251,18.577 12.485,25.812 17.035,17.034 44.652,17.034 61.686,0 4.015,-4.015 7.084,-8.619 9.206,-13.533"
             style="fill:none;stroke:#000000;stroke-width:15;stroke-linecap:round;stroke-linejoin:round;stroke-miterlimit:10;stroke-dasharray:none;stroke-opacity:1"
             id="path3993" /></g><g
           id="g3995"
           transform="translate(139.458,87.8926)"><path
             d="m 0,0 c -1.902,-7.204 -5.678,-14.018 -11.326,-19.666 -17.034,-17.034 -44.652,-17.034 -61.686,0 -2.349,2.35 -4.375,4.901 -6.077,7.599"
             style="fill:none;stroke:#000000;stroke-width:15;stroke-linecap:round;stroke-linejoin:round;stroke-miterlimit:10;stroke-dasharray:none;stroke-opacity:1"
             id="path3997" /></g><g
           id="g3999"
           transform="translate(141.2852,143.5547)"><path
             d="m 0,0 -3.917,-27.162 -27.162,3.917"
             style="fill:none;stroke:#000000;stroke-width:15;stroke-linecap:round;stroke-linejoin:round;stroke-miterlimit:10;stroke-dasharray:none;stroke-opacity:1"
             id="path4001" /></g><g
           id="g4003"
           transform="translate(87.6377,79.8096)"><path
             d="m 0,0 -27.162,-3.917 3.917,-27.162"
             style="fill:none;stroke:#000000;stroke-width:15;stroke-linecap:round;stroke-linejoin:round;stroke-miterlimit:10;stroke-dasharray:none;stroke-opacity:1"
             id="path4005" /></g></g></g></g></svg>
