<svg id="Layer_13" viewBox="0 0 50 50" xmlns="http://www.w3.org/2000/svg" data-name="Layer 13"><path d="m42.52148438 19.27148438c0-9.66162109-7.86035156-17.52148438-17.52148438-17.52148438-6.50927734 0-12.44628906 3.57666016-15.49414062 9.33349609-.19384766.36621094-.05419922.8203125.31152344 1.01367188.36523438.1953125.8203125.0546875 1.01367188-.31152344 1.05908203-2.00036621 2.50091553-3.71069336 4.2064209-5.06524658-.00238037.02429199-.01745605.04492188-.01745605.06964111v.79589844l-1.21630859.53662109c-.17578125.07714844-.31494141.21923828-.38916016.39648438l-.76611328 1.82958984c-.04003906.09619141-.06005859.19970703-.05810547.30371094l.04248047 2.21289062c.00292969.15576172.05419922.30615234.14648438.43164062l.57666016.78027344-.42871094.76367188c-.01855469.03271484-.03466797.06738281-.04785156.10302734l-.53857422 1.43017578c-.07275391.19238281-.06298828.40673828.02685547.59179688l.64941406 1.33642578.01611328 2.609375c.00146484.20800781.08886719.40576172.24121094.546875l.83935547.77441406.22558594 2.10253906c.01123047.10449219.04443359.20605469.09716797.296875l.99987793 1.71942139c-.50036621.53088379-.81738281 1.22625732-.87945557 1.99591064h-1.43145752c-.40496826 0-.78369141.10125732-1.12554932.26739502-1.9708252-2.73284912-3.02142334-5.94604492-3.02142334-9.34356689 0-.55615234.02880859-1.11865234.08642578-1.67138672.04248047-.41162109-.25683594-.78027344-.66894531-.82324219-.41162109-.03808594-.78027344.25683594-.82324219.66894531-.0625.60351562-.09423828 1.21777344-.09423828 1.82568359 0 3.77856445 1.18676758 7.34979248 3.41430664 10.37091064-.22454834.38397217-.36254883.82476807-.36254883 1.30096436v3.33203125c0 1.43066406 1.1640625 2.59472656 2.59521484 2.59472656h1.43127441c.13153076 1.64221191 1.45629883 2.94140625 3.11102295 3.02606201.66156006 2.88012695 1.80004883 5.36053467 3.42010498 7.35089111.50732422.62304688 1.26220703.98828125 2.07080078 1.00195312.01611328.00097656.03173828.00097656.04785156.00097656.79931641 0 1.55517578-.34277344 2.08007812-.94433594.87207031-.99804688.91455078-2.50097656.09863281-3.49414062-.8963623-1.09234619-1.58068848-2.46289062-2.06439209-4.05255127.85101318-.25610352 1.55181885-.84008789 1.96234131-1.61175537l8.69433594 3.15356445c.20166016.07324219.41210938.109375.62109375.109375.36962891 0 .73583984-.11230469 1.04589844-.33007812.48632812-.33984375.77685547-.89746094.77734375-1.4921875l.00415039-7.04681396c3.87176514-3.33660889 6.09545898-8.15576172 6.09545898-13.26959229zm-3.14221191 7.04058838-.04089355-.44732666.40380859-1.04150391c.03369141-.08642578.05078125-.17822266.05078125-.27099609v-.75195312c0-.30419922-.18359375-.578125-.46484375-.69384766l-.80078125-.32910156-.59716797-1.65087891v-1.25292969l.42773438-.45019531c.09326172-.09765625.15820312-.21875.18798828-.35058594l.25878906-1.14013672.22412109-.17919922h.87890625c.07666016 0 .15283203-.01171875.22607422-.03466797l.77978516-.246521c.06646729.5914917.10791016 1.19030762.10791016 1.79925537 0 2.47723389-.58105469 4.87445068-1.64221191 7.04058838zm-1.44909668-14.87017822.44482422-.66748047c.03546143-.05322266.05621338-.11395264.07714844-.17419434.38525391.59558105.72631836 1.22027588 1.03118896 1.86645508l-.09320068.05041504-.27441406-.12695312c-.09863281-.04589844-.20654297-.06982422-.31542969-.06982422h-.45458984l-.41552734-.27294922v-.60546875zm-23.39892578 9.13476562-.01513672-2.45361328c-.00048828-.11230469-.02636719-.22265625-.07519531-.32324219l-.58300781-1.19921875.40478516-1.07470703.63867188-1.13671875c.14453125-.25732422.125-.57519531-.05029297-.81298828l-.72314453-.97851562-.03466797-1.81591797.58935547-1.40771484 1.39013672-.61328125c.27197266-.11962891.44726562-.38867188.44726562-.68603516v-.88330078l1.09326172-.72900391c.13769531-.09179688.24072266-.22607422.29394531-.38232422l.47540283-1.39782715c2.04211426-.9251709 4.28814697-1.43225098 6.61737061-1.43225098 1.30743408 0 2.57196045.17468262 3.78930664.47155762l-.0065918.69348145-.83447266.10888672c-.12841797.01660156-.25.06591797-.35302734.14355469l-1.52246094 1.14160156c-.15478516.11621094-.25878906.28710938-.29003906.47802734l-.25390625 1.53808594c-.05712891.34570312.1328125.68505859.45800781.81689453l1.26904297.51464844c.16064453.06542969.33935547.07324219.50537109.02099609l1.39208984-.43457031.55224609.22509766v1.37402344c0 .12548828.03125.24902344.09130859.35888672l.54833984 1.00585938-.50048828.77880859-.38720703-.2421875c-.11914062-.07421875-.25683594-.11376953-.39746094-.11376953h-1.52246094c-.24511719 0-.47460938.11962891-.61474609.3203125l-1.03271484 1.47753906-1.22412109.60888672c-.29492188.14648438-.45947266.46826172-.40576172.79345703l.29785156 1.80664062-.19335938 1.30664062-.37988281-.04345703-1.09326172-2.40478516c-.08398438-.18505859-.24023438-.32861328-.43212891-.39648438-.19335938-.06835938-.40380859-.05517578-.5859375.03613281l-.98291016.49121094-1.47460938-.52685547c-.08105469-.02880859-.16650391-.04345703-.25244141-.04345703h-1.77587891c-.23046875 0-.44775391.10595703-.58984375.28710938l-1.19628906 1.52392578c-.16992188.21582031-.20751953.50732422-.09912109.75976562l.85498047 2.046875.05224609 1.35693359v1.60400391c0 .27246094.14746094.5234375.38574219.65576172l.85302734.47412109.10021973 1.0512085c-.37225342.00982666-.72680664.08422852-1.05883789.20782471l-.87634277-1.5065918-.23828125-2.22412109c-.01904297-.18066406-.10351562-.34814453-.23681641-.47119141l-.80712891-.74462891zm-2.50097656 13.69873047v-3.33203125c0-.60449219.49121094-1.09570312 1.09521484-1.09570312h1.40478516v5.52246094h-1.40478516c-.60400391 0-1.09521484-.49121094-1.09521484-1.09472656zm12.12646484 12.04394531c-.24462891.28027344-.61767578.41210938-.97216797.43066406-.36572266-.00683594-.70605469-.17089844-.93359375-.45019531-1.40692139-1.72845459-2.41021729-3.88696289-3.03076172-6.38671875h2.58190918c.54260254 1.90008545 1.34790039 3.53839111 2.4239502 4.84960938.35644531.43457031.32666016 1.10351562-.06933594 1.55664062zm.02441406-9.7109375c0 .99511719-.80957031 1.8046875-1.8046875 1.8046875h-4.54150391c-.99511719 0-1.8046875-.80957031-1.8046875-1.8046875v-7.99707031c0-.99511719.80957031-1.8046875 1.8046875-1.8046875h4.54150391c.99511719 0 1.8046875.80957031 1.8046875 1.8046875zm10.74072266 2.97851562c0 .14648438-.08642578.22851562-.13769531.26464844s-.15820312.08886719-.29492188.0390625l-8.81665039-3.19787598c.00073242-.02868652.00854492-.05548096.00854492-.08435059v-7.46447754l8.81591797-3.20300293c.13818359-.04882812.24414062.00341797.29492188.03857422.05175781.03613281.13769531.11816406.13769531.265625zm1.50531006-9.10113525.00250244-4.23968506c.00048828-.59521484-.29003906-1.15332031-.77636719-1.49462891-.48730469-.34179688-1.11181641-.42333984-1.66894531-.22070312l-8.47503662 3.0791626c-.42712402-1.33093262-1.66192627-2.30328369-3.13287354-2.30328369h-2.12884521l-1.01861572-.27001953-.12451172-1.30712891c-.0234375-.24609375-.16650391-.46484375-.38232422-.58496094l-.8125-.45166016-.05810547-2.70458984c-.00341797-.08496094-.02099609-.16845703-.05224609-.24755859l-.74267578-1.79882812.69580078-.88623047h1.28125l1.65380859.59082031c.19433594.06884766.40527344.05664062.58789062-.03564453l.57275391-.28662109.94677734 2.08300781c.10888672.23974609.33544922.40429688.59716797.43457031l1.52246094.17480469c.39453125.04394531.76855469-.23486328.82714844-.63525391l.31738281-2.14111328c.01171875-.07666016.01074219-.15527344-.00195312-.23193359l-.22705078-1.37548828.89941406-.44726562c.11230469-.05566406.20898438-.13867188.28076172-.24169922l.91845703-1.31396484h.91650391l.83251953.52050781c.34667969.21728516.80615234.11523438 1.02832031-.23046875l1.14160156-1.77587891c.1484375-.23095703.15869141-.52392578.02783203-.76464844l-.66992188-1.22851562v-1.68701172c0-.30517578-.18457031-.57958984-.46728516-.69482422l-1.26855469-.51660156c-.16064453-.06494141-.33935547-.07324219-.50634766-.02099609l-1.39257812.43457031-.46435547-.18847656.10693359-.64892578 1.12402344-.84277344 1.28564453-.16748047c.37109375-.04833984.64990234-.36230469.65332031-.73632812l.00878906-.91766357c2.76159668.96923828 5.18481445 2.66107178 7.02282715 4.86627197l-.2532959 1.0201416-.49853516.74804688c-.08203125.12304688-.12597656.26806641-.12597656.41601562v1.23681641c0 .25244141.12695312.48779297.33789062.62646484l.94091797.61865234c.12255859.08056641.265625.12353516.41210938.12353516h.51367188l.46582031.21582031c.10009766.046875.20800781.06982422.31542969.06982422.12304688 0 .24560547-.03027344.35693359-.09033203l.28778076-.15576172c.24755859.68652344.46331787 1.38775635.61590576 2.1138916l-.88464355.27966309h-1.02587891c-.17041016 0-.33544922.05810547-.46826172.1640625l-.63476562.50732422c-.1328125.10595703-.22558594.25439453-.26318359.41992188l-.27099609 1.19482422-.4921875.51757812c-.1328125.13916016-.20654297.32421875-.20654297.51660156v1.68017578c0 .08398438.01416016.16796875.04199219.24755859l.76806641 2.11181641c.07324219.19384766.22412109.34863281.41601562.42773438l.63671875.26171875-.41650391 1.18408203c-.04199219.10791016-.05810547.22363281-.04785156.33886719l.06347656.69873047c.00390625.0390625.01025391.078125.02001953.11621094l.38818359 1.5255127c-.55114746.82318115-1.16973877 1.60345459-1.87310791 2.31964111zm-7.59613037-7.75921631-1.80322266-1.03076172c-.11474609-.06738281-.24609375-.10302734-.37939453-.10302734h-1.52246094c-.20166016 0-.39453125.08105469-.53564453.22460938l-.49853516.50830078c-.05712891.05859375-.10400391.12548828-.13964844.19921875l-.38134766.78955078c-.13232422.27441406-.0859375.6015625.11767578.828125l.85644531.95166016c.08349609.09228516.18847656.16259766.30566406.20458984l1.62109375.578125c.08154297.02880859.16650391.04345703.25195312.04345703.0703125 0 .14111328-.00976562.20947266-.02978516l1.59326172-.46386719c.29003906-.08447266.50146484-.33496094.53564453-.63525391l.15136719-1.32373047c.03466797-.30175781-.11669922-.59423828-.38232422-.74121094zm-1.20263672 1.39941406-.88134766.25634766-1.21386719-.43261719-.39257812-.43652344.10839844-.22509766.19189453-.1953125h1.00390625l1.22119141.70361328-.03759766.32958984zm-19.41845704-9.65625c0-.41992188.33007812-.75.75-.75.40966797 0 .75.33007812.75.75 0 .41015625-.34033203.75-.75.75-.41992188 0-.75-.33984375-.75-.75z"/></svg>