<svg id="Layer_1" viewBox="0 0 512 512" xmlns="http://www.w3.org/2000/svg" data-name="Layer 1"><path d="m330.685 368.689c0-28.115 13.344-46.73 28.794-68.285 13.642-19.032 28.645-39.968 35.332-70.069 5.968 8.78 14.229 15.994 24.097 20.64v30.53c0 3.016 1.931 5.692 4.792 6.643.726.241 1.47.357 2.207.357 2.166 0 4.262-1.008 5.609-2.811l22.224-29.747c29.159-4.504 50.773-29.489 50.773-59.357 0-33.124-26.948-60.072-60.072-60.072-20.868 0-39.278 10.701-50.049 26.899-6.34-25.195-20.185-46.708-40.965-63.254-25.786-20.533-60.386-31.841-97.427-31.841s-71.641 11.308-97.427 31.841c-20.779 16.546-34.625 38.059-40.965 63.254-10.771-16.198-29.181-26.899-50.049-26.899-33.124 0-60.072 26.948-60.072 60.072 0 29.868 21.615 54.853 50.773 59.357l22.224 29.747c1.347 1.803 3.443 2.811 5.609 2.811.736 0 1.481-.117 2.207-.357 2.861-.951 4.792-3.627 4.792-6.643v-30.53c9.868-4.646 18.128-11.86 24.097-20.64 6.687 30.1 21.689 51.035 35.332 70.067 15.451 21.555 28.794 40.171 28.794 68.287v4.373c0 16.996 13.828 30.823 30.824 30.823h87.722c16.996 0 30.823-13.827 30.823-30.823v-4.373zm113.756-218.17c25.404 0 46.072 20.667 46.072 46.072 0 23.718-17.764 43.42-41.32 45.83-1.948.2-3.724 1.206-4.896 2.774l-11.39 15.245v-14.106c0-2.923-1.816-5.538-4.555-6.559-17.934-6.685-29.983-24.039-29.983-43.184 0-25.404 20.667-46.072 46.072-46.072zm-360.793 89.256c-2.739 1.021-4.555 3.636-4.555 6.559v14.106l-11.39-15.245c-1.172-1.569-2.948-2.575-4.896-2.774-23.557-2.409-41.32-22.112-41.32-45.83 0-25.404 20.667-46.072 46.072-46.072s46.072 20.667 46.072 46.072c0 19.145-12.049 36.499-29.983 43.184zm233.037 128.915v4.373c0 9.276-7.547 16.823-16.823 16.823h-87.722c-9.277 0-16.824-7.547-16.824-16.823v-4.373c0-32.615-15.26-53.904-31.416-76.443-17.831-24.876-36.269-50.599-36.269-95.655 0-78.51 66.542-114.268 128.369-114.268s128.369 35.758 128.369 114.268c0 45.057-18.438 70.78-36.27 95.657-16.155 22.539-31.415 43.827-31.415 76.441zm-232.965-271.107c1.933-3.349 6.215-4.496 9.562-2.562l24.783 14.308c3.348 1.933 4.495 6.214 2.562 9.562-1.296 2.246-3.649 3.501-6.068 3.501-1.188 0-2.391-.302-3.494-.939l-24.783-14.308c-3.348-1.933-4.495-6.214-2.562-9.562zm307.653 21.308c-1.933-3.348-.786-7.629 2.562-9.562l24.782-14.308c3.348-1.934 7.629-.786 9.562 2.562s.786 7.629-2.562 9.562l-24.782 14.308c-1.102.637-2.306.939-3.494.939-2.419 0-4.772-1.255-6.068-3.501zm-58.428-59.65 14.308-24.782c1.933-3.349 6.214-4.494 9.562-2.562 3.348 1.933 4.495 6.214 2.562 9.562l-14.308 24.782c-1.296 2.246-3.649 3.501-6.068 3.501-1.188 0-2.391-.302-3.494-.939-3.348-1.933-4.495-6.214-2.562-9.562zm-180.324-17.782c-1.933-3.348-.786-7.629 2.562-9.562 3.348-1.932 7.629-.786 9.562 2.562l14.308 24.782c1.933 3.348.786 7.629-2.562 9.562-1.102.637-2.306.939-3.494.939-2.419 0-4.772-1.255-6.068-3.501zm96.378-.239v-28.616c0-3.866 3.135-7 7-7s7 3.134 7 7v28.616c0 3.866-3.135 7-7 7s-7-3.134-7-7zm52.004 425.86h-90.008c-3.866 0-7 3.134-7 7s3.134 7 7 7h8.888v3.652c0 11.945 9.718 21.663 21.663 21.663h28.905c11.945 0 21.663-9.718 21.663-21.663v-3.652h8.889c3.866 0 7-3.134 7-7s-3.134-7-7-7zm-22.889 17.652c0 4.226-3.438 7.663-7.663 7.663h-28.905c-4.226 0-7.663-3.438-7.663-7.663v-3.652h44.231zm41.282-36.384c0 3.866-3.134 7-7 7h-112.796c-3.866 0-7-3.134-7-7s3.134-7 7-7h112.796c3.866 0 7 3.134 7 7zm0-25.731c0 3.866-3.134 7-7 7h-112.796c-3.866 0-7-3.134-7-7s3.134-7 7-7h112.796c3.866 0 7 3.134 7 7zm-28.967-211.096c0 3.913 1.738 7.576 4.768 10.052 2.994 2.446 3.438 6.856.991 9.85-1.384 1.693-3.396 2.571-5.424 2.571-1.558 0-3.125-.517-4.425-1.58-6.297-5.146-9.909-12.761-9.909-20.893s3.612-15.747 9.909-20.893c2.994-2.446 7.403-2.002 9.85.991 2.446 2.994 2.002 7.403-.991 9.85-3.03 2.476-4.768 6.14-4.768 10.052zm59.918 30.084c2.28-6.6 2.203-13.576.025-19.902 5.779-10.512 7.107-23.711 3.502-35.691-3.277-10.888-10.148-19.501-19.443-24.455-.401-4.28-1.477-8.436-3.271-12.322-5.205-11.274-15.539-19.285-29.174-22.698-3.212-5.664-8.099-10.377-14.188-13.307-10.288-4.95-22.402-4.02-31.8 2.024-9.397-6.044-21.511-6.973-31.799-2.024-6.089 2.929-10.975 7.643-14.187 13.306-13.63 3.413-23.961 11.418-29.169 22.687-1.797 3.888-2.875 8.047-3.276 12.33-9.245 4.926-16.09 13.469-19.391 24.286-3.673 12.031-2.364 25.292 3.448 35.864-2.177 6.326-2.255 13.302.026 19.902 2.706 7.835 8.375 14.118 15.77 17.621.185 5.069 1.305 9.999 3.407 14.559 5.2 11.285 15.54 19.306 29.186 22.722 3.212 5.663 8.098 10.377 14.187 13.305 4.466 2.149 9.278 3.194 14.063 3.194 6.234 0 12.42-1.777 17.736-5.193 5.316 3.417 11.502 5.193 17.737 5.193 4.784 0 9.597-1.045 14.062-3.193 6.087-2.928 10.973-7.639 14.185-13.3 13.551-3.389 23.834-11.313 29.081-22.498 2.171-4.628 3.327-9.639 3.515-14.793 7.328-3.502 13.094-9.873 15.768-17.616zm-120.079 55.591c-6.934-3.335-11.135-10.726-10.455-18.391.68-7.664 6.118-14.2 13.531-16.263 3.725-1.036 5.904-4.896 4.867-8.62-1.037-3.725-4.896-5.902-8.62-4.867-12.997 3.617-22.53 15.075-23.723 28.513-.076.852-.115 1.702-.123 2.548-5.599-2.837-9.813-7.005-12.203-12.192-3.459-7.507-2.831-16.434 1.771-25.137 1.807-3.417.501-7.653-2.917-9.46-3.417-1.806-7.653-.501-9.46 2.917-1.356 2.565-2.452 5.183-3.313 7.821-2.133-1.87-3.785-4.264-4.741-7.031-2.042-5.911-.617-12.383 3.717-16.89 1.368-1.422 2.96-2.577 4.733-3.434 3.481-1.682 4.939-5.867 3.257-9.348s-5.867-4.939-9.348-3.257c-2.194 1.06-4.223 2.388-6.092 3.926-1.501-5.789-1.404-12.142.416-18.104 1.528-5.007 4.144-9.249 7.588-12.441.913 3.143 2.171 6.265 3.783 9.314 1.255 2.375 3.683 3.729 6.194 3.729 1.104 0 2.223-.262 3.266-.813 3.417-1.807 4.723-6.042 2.916-9.46-4.606-8.713-5.232-17.648-1.761-25.16 2.392-5.177 6.603-9.336 12.193-12.168.008.846.048 1.695.123 2.547 1.193 13.438 10.726 24.896 23.723 28.513.627.175 1.259.258 1.88.258 3.064 0 5.878-2.029 6.74-5.125 1.037-3.724-1.143-7.584-4.867-8.62-7.413-2.063-12.851-8.599-13.531-16.263s3.521-15.056 10.455-18.391c6.086-2.927 13.295-2.259 18.73 1.538v130.384c0 6.774-4.231 14.695-12.073 16.033-3.811.65-6.373 4.267-5.723 8.078.583 3.413 3.543 5.824 6.892 5.824.391 0 .787-.033 1.186-.101 3.644-.622 6.885-1.925 9.719-3.709v11.765c-5.435 3.798-12.645 4.465-18.73 1.538zm106.847-60.163c-.944 2.731-2.614 5.129-4.747 7.007-.861-2.629-1.955-5.239-3.308-7.797-1.807-3.418-6.044-4.723-9.46-2.916-3.418 1.807-4.723 6.042-2.916 9.46 4.635 8.766 5.24 17.744 1.705 25.281-2.404 5.126-6.593 9.233-12.136 12.041-.008-.844-.048-1.692-.124-2.542-1.192-13.438-10.726-24.896-23.723-28.513-3.721-1.035-7.583 1.143-8.62 4.867s1.143 7.584 4.867 8.62c7.413 2.063 12.851 8.599 13.531 16.263.681 7.665-3.521 15.055-10.456 18.391-6.083 2.928-13.295 2.262-18.73-1.536v-130.385c0-6.774 4.231-14.695 12.073-16.033 3.811-.65 6.373-4.267 5.723-8.078s-4.265-6.373-8.078-5.723c-3.644.622-6.885 1.925-9.719 3.709v-11.768c5.436-3.798 12.646-4.464 18.73-1.536 6.934 3.336 11.136 10.727 10.455 18.391-.68 7.665-6.118 14.2-13.531 16.263-3.725 1.036-5.904 4.896-4.867 8.62 1.037 3.725 4.897 5.906 8.62 4.867 12.998-3.617 22.531-15.076 23.723-28.513.076-.852.116-1.701.124-2.547 5.593 2.834 9.804 6.995 12.196 12.176 3.467 7.51 2.84 16.442-1.765 25.152-1.807 3.417-.502 7.653 2.916 9.46 1.043.552 2.163.813 3.266.813 2.511 0 4.938-1.355 6.194-3.729 1.612-3.049 2.87-6.171 3.783-9.314 3.472 3.219 6.103 7.505 7.625 12.562 1.783 5.923 1.868 12.233.378 17.982-1.868-1.536-3.896-2.864-6.089-3.924-3.482-1.682-7.667-.224-9.349 3.257s-.224 7.667 3.257 9.349c1.773.857 3.366 2.012 4.732 3.433 4.335 4.508 5.759 10.98 3.718 16.891zm-101.546-25.513c0 8.132-3.612 15.748-9.909 20.894-1.3 1.062-2.868 1.579-4.425 1.579-2.029 0-4.041-.877-5.425-2.571-2.446-2.994-2.002-7.404.992-9.85 3.03-2.475 4.768-6.139 4.768-10.052s-1.738-7.576-4.768-10.052c-2.994-2.446-3.438-6.856-.992-9.85 2.446-2.993 6.856-3.437 9.85-.991 6.297 5.146 9.909 12.76 9.909 20.893zm272.403 259.979c-1.994-22.134-12.137-42.634-28.561-57.726-9.504-8.733-20.648-15.195-32.671-19.123 11.197-8.446 18.45-21.856 18.45-36.93 0-25.496-20.742-46.238-46.238-46.238s-46.238 20.742-46.238 46.238c0 15.074 7.253 28.483 18.45 36.93-12.022 3.928-23.166 10.39-32.67 19.123-16.424 15.091-26.567 35.592-28.561 57.725-.019.209-.028.418-.028.628v27.27c0 3.866 3.134 7 7 7h164.095c3.866 0 7-3.134 7-7v-27.27c0-.209-.009-.419-.028-.628zm-81.676-9.665-7.29 10.434-7.29-10.434 5.757-57.576c.493-.009.983-.035 1.479-.035.532 0 1.057.026 1.586.037zm-7.343-136.352c17.776 0 32.238 14.462 32.238 32.238s-14.462 32.238-32.238 32.238-32.238-14.462-32.238-32.238 14.462-32.238 32.238-32.238zm75.047 166.914h-150.095v-19.948c3.158-33.563 27.557-59.961 59.339-66.594l-5.716 57.167c-.167 1.665.269 3.334 1.227 4.705l14.513 20.773c1.31 1.875 3.452 2.991 5.738 2.991s4.429-1.117 5.738-2.991l14.513-20.773c.958-1.371 1.394-3.041 1.227-4.706l-5.715-57.143c31.729 6.67 56.076 33.046 59.23 66.57v19.948zm-340.495-78.623c-9.504-8.733-20.648-15.195-32.671-19.123 11.197-8.446 18.45-21.856 18.45-36.93 0-25.496-20.742-46.238-46.238-46.238s-46.238 20.742-46.238 46.238c0 15.074 7.253 28.483 18.45 36.93-12.022 3.928-23.166 10.39-32.67 19.123-16.423 15.092-26.566 35.592-28.561 57.726-.019.208-.028.418-.028.628v27.27c0 3.866 3.134 7 7 7h164.095c3.866 0 7-3.134 7-7v-27.27c0-.209-.009-.419-.028-.628-1.994-22.134-12.137-42.634-28.561-57.726zm-53.114 48.061-7.29 10.435-7.29-10.435 5.757-57.576c.493-.009.983-.035 1.479-.035.532 0 1.057.026 1.586.037l5.758 57.573zm-7.344-136.351c17.776 0 32.238 14.462 32.238 32.238s-14.462 32.238-32.238 32.238-32.238-14.462-32.238-32.238 14.462-32.238 32.238-32.238zm75.047 166.914h-150.094v-19.948c3.157-33.563 27.556-59.961 59.338-66.594l-5.716 57.166c-.167 1.665.269 3.334 1.227 4.705l14.513 20.774c1.31 1.875 3.452 2.991 5.738 2.991s4.429-1.117 5.738-2.991l14.513-20.774c.958-1.372 1.394-3.041 1.227-4.706l-5.715-57.142c31.729 6.67 56.076 33.046 59.23 66.57v19.948zm290.534-295.806c0-3.866 3.134-7 7-7h.675c3.866 0 7 3.134 7 7s-3.134 7-7 7h-.675c-3.866 0-7-3.134-7-7zm-43.05 0c0-3.866 3.134-7 7-7h.675c3.866 0 7 3.134 7 7s-3.134 7-7 7h-.675c-3.866 0-7-3.134-7-7zm21.525 0c0-3.866 3.134-7 7-7h.675c3.866 0 7 3.134 7 7s-3.134 7-7 7h-.675c-3.866 0-7-3.134-7-7zm-340.681 0c0 3.866-3.134 7-7 7h-.675c-3.866 0-7-3.134-7-7s3.134-7 7-7h.675c3.866 0 7 3.134 7 7zm-21.525 0c0 3.866-3.134 7-7 7h-.675c-3.866 0-7-3.134-7-7s3.134-7 7-7h.675c3.866 0 7 3.134 7 7zm-21.525 0c0 3.866-3.134 7-7 7h-.675c-3.866 0-7-3.134-7-7s3.134-7 7-7h.675c3.866 0 7 3.134 7 7z"/></svg>