<?xml version="1.0"?>
<svg xmlns="http://www.w3.org/2000/svg" data-name="Layer 1" id="Layer_1" viewBox="0 0 128 128"><title/><path d="M49.28674,100.72058,37.11035,121.66113l-3.9502-8.60645a1.99824,1.99824,0,0,0-1.81641-1.166c-.06348,0-.127.00293-.19141.00879l-9.46582.90625L33.245,92.925a10.91034,10.91034,0,0,1-2.92175-1.64569c-.17657-.14124-.325-.29736-.48822-.44586L16.27148,114.16016a1.99993,1.99993,0,0,0,1.91895,2.99609l11.92773-1.1416L35.084,126.834a2,2,0,0,0,1.7207,1.16406c.03223.001.06445.002.09668.002a1.998,1.998,0,0,0,1.72852-.99512l14.57758-25.07074a10.59645,10.59645,0,0,1-1.22308-.19782A10.90663,10.90663,0,0,1,49.28674,100.72058Z"/><path d="M98.16492,90.83331c-.16321.1485-.31158.30475-.48816.446a10.91516,10.91516,0,0,1-2.92187,1.64545l11.55859,19.879-9.46582-.90625a1.99007,1.99007,0,0,0-2.00781,1.15723l-3.9502,8.60645L78.71326,100.72052a10.9173,10.9173,0,0,1-2.69958,1.01678,10.61875,10.61875,0,0,1-1.2168.20422l14.57324,25.06335A1.998,1.998,0,0,0,91.09863,128c.03223,0,.06445-.001.09668-.002A2,2,0,0,0,92.916,126.834l4.96582-10.81934,11.92773,1.1416a1.99993,1.99993,0,0,0,1.91895-2.99609Z"/><path d="M81.00293,93.57031a12.13244,12.13244,0,0,1,3.09473-2.77051,12.30956,12.30956,0,0,1,4.17676-.72656c2.3125-.16016,4.93262-.3418,6.90332-1.918,1.97949-1.583,2.73828-4.1084,3.40723-6.33594a12.29738,12.29738,0,0,1,1.62207-3.89941,12.1925,12.1925,0,0,1,3.415-2.42871c2.02832-1.15137,4.32813-2.45508,5.43555-4.75586,1.08789-2.25879.68164-4.84863.32422-7.13379a12.453,12.453,0,0,1-.22559-4.27832,12.067,12.067,0,0,1,1.98828-3.60156C112.48242,53.78906,114,51.59766,114,49s-1.51758-4.78906-2.85547-6.72168a12.067,12.067,0,0,1-1.98828-3.60156,12.453,12.453,0,0,1,.22559-4.27832c.35742-2.28516.76367-4.874-.32422-7.13281-1.10742-2.2998-3.40625-3.60449-5.43457-4.75488a12.22054,12.22054,0,0,1-3.416-2.43066A12.28767,12.28767,0,0,1,98.585,16.18066c-.66895-2.22754-1.42676-4.75293-3.40625-6.33594-1.9707-1.57617-4.5918-1.75781-6.9043-1.918a12.30956,12.30956,0,0,1-4.17676-.72656,12.13244,12.13244,0,0,1-3.09473-2.77051C79.4248,2.69727,77.63477.73438,75.127.16309c-2.417-.55273-4.73047.376-6.96582,1.27148A12.47587,12.47587,0,0,1,64,2.61621a12.47587,12.47587,0,0,1-4.16113-1.18164C57.60449.53906,55.2959-.39062,52.873.16309c-2.50781.57129-4.29785,2.53418-5.876,4.2666A12.13244,12.13244,0,0,1,43.90234,7.2002a12.30956,12.30956,0,0,1-4.17676.72656c-2.3125.16016-4.93262.3418-6.90332,1.918-1.97949,1.583-2.73828,4.1084-3.40723,6.33594A12.29739,12.29739,0,0,1,27.793,20.08008a12.1925,12.1925,0,0,1-3.415,2.42871c-2.02832,1.15137-4.32812,2.45508-5.43555,4.75586-1.08789,2.25879-.68164,4.84863-.32422,7.13379a12.453,12.453,0,0,1,.22559,4.27832,12.067,12.067,0,0,1-1.98828,3.60156C15.51758,44.21094,14,46.40234,14,49s1.51758,4.78906,2.85547,6.72168a12.067,12.067,0,0,1,1.98828,3.60156,12.453,12.453,0,0,1-.22559,4.27832c-.35742,2.28516-.76367,4.874.32422,7.13281,1.10742,2.2998,3.40625,3.60449,5.43457,4.75488a12.22054,12.22054,0,0,1,3.416,2.43066A12.28767,12.28767,0,0,1,29.415,81.81934c.66895,2.22754,1.42676,4.75293,3.40625,6.33594,1.9707,1.57617,4.5918,1.75781,6.9043,1.918a12.30956,12.30956,0,0,1,4.17676.72656,12.13244,12.13244,0,0,1,3.09473,2.77051c1.57813,1.73242,3.36816,3.69531,5.876,4.2666,2.418.55078,4.73047-.376,6.96582-1.27148A12.47587,12.47587,0,0,1,64,95.38379a12.47587,12.47587,0,0,1,4.16113,1.18164,15.04,15.04,0,0,0,5.46484,1.4375,6.72015,6.72015,0,0,0,1.501-.166C77.63477,97.26563,79.4248,95.30273,81.00293,93.57031Zm-11.35449-.71777A15.40192,15.40192,0,0,0,64,91.38379a15.40192,15.40192,0,0,0-5.64844,1.46875c-1.74219.69922-3.39062,1.36035-4.58984,1.084-1.28516-.292-2.51074-1.63672-3.80859-3.06055a14.99771,14.99771,0,0,0-4.31055-3.67773A15.2088,15.2088,0,0,0,40.002,86.083c-1.89648-.13086-3.6875-.25488-4.68262-1.05078-1.00488-.80469-1.52441-2.5332-2.07324-4.36328a15.17065,15.17065,0,0,0-2.3252-5.24219,15.08547,15.08547,0,0,0-4.57031-3.416c-1.666-.94531-3.23926-1.83789-3.80469-3.01074-.54687-1.13672-.26953-2.90527.02441-4.7793a15.37105,15.37105,0,0,0,.17383-5.78223,14.89416,14.89416,0,0,0-2.59961-4.99316C19.042,51.85254,18,50.34766,18,49s1.042-2.85254,2.14453-4.44531a14.89416,14.89416,0,0,0,2.59961-4.99316,15.37619,15.37619,0,0,0-.17383-5.7832c-.29395-1.873-.57129-3.64258-.02441-4.77832.56543-1.17383,2.13965-2.06641,3.80566-3.01172a15.08715,15.08715,0,0,0,4.56836-3.41406,15.18547,15.18547,0,0,0,2.32617-5.24316c.5498-1.83008,1.06934-3.55859,2.07422-4.36328.99512-.7959,2.78613-.91992,4.68164-1.05078a15.2088,15.2088,0,0,0,5.64063-1.11523A14.99771,14.99771,0,0,0,49.95313,7.124C51.251,5.7002,52.47656,4.35547,53.76172,4.06348c1.19922-.27539,2.84766.38574,4.58984,1.084A15.40192,15.40192,0,0,0,64,6.61621a15.40192,15.40192,0,0,0,5.64844-1.46875c1.74316-.69824,3.39258-1.35937,4.58984-1.084,1.28516.292,2.51074,1.63672,3.80859,3.06055a14.99771,14.99771,0,0,0,4.31055,3.67773A15.2088,15.2088,0,0,0,87.998,11.917c1.89648.13086,3.6875.25488,4.68262,1.05078,1.00488.80469,1.52441,2.5332,2.07324,4.36328a15.17065,15.17065,0,0,0,2.3252,5.24219,15.08547,15.08547,0,0,0,4.57031,3.416c1.666.94531,3.23926,1.83789,3.80469,3.01074.54688,1.13672.26953,2.90527-.02441,4.7793a15.371,15.371,0,0,0-.17383,5.78223,14.89416,14.89416,0,0,0,2.59961,4.99316C108.958,46.14746,110,47.65234,110,49s-1.042,2.85254-2.14453,4.44531a14.89416,14.89416,0,0,0-2.59961,4.99316,15.37619,15.37619,0,0,0,.17383,5.7832c.29395,1.873.57129,3.64258.02441,4.77832-.56543,1.17383-2.13965,2.06641-3.80566,3.01172a15.08715,15.08715,0,0,0-4.56836,3.41406,15.18547,15.18547,0,0,0-2.32617,5.24316c-.5498,1.83008-1.06934,3.55859-2.07422,4.36328-.99512.7959-2.78613.91992-4.68164,1.05078a15.2088,15.2088,0,0,0-5.64062,1.11523A14.99771,14.99771,0,0,0,78.04688,90.876c-1.29785,1.42383-2.52344,2.76855-3.80859,3.06055C73.041,94.21289,71.3916,93.55176,69.64844,92.85254Z"/><path d="M72.32593,31.28156,72.13831,31l.12354-.18536A3.99953,3.99953,0,0,0,69.0025,24.5H67.806l-.47882-.71838a4,4,0,0,0-6.65692,0L60.19147,24.5H59a4,4,0,0,0-3.32843,6.21844L55.85925,31l-.18768.28156A4,4,0,0,0,59,37.5h1.19147l.47882.71838a4,4,0,0,0,6.65692,0L67.806,37.5H68.9975a4,4,0,0,0,3.32843-6.21844ZM68.9975,33.5H65.665L63.99878,36l-1.66626-2.5H59L60.66626,31,59,28.5h3.33252L63.99878,26l1.6662,2.5H68.9975L67.33124,31Z"/><path d="M89.13831,47l.12347-.1853A3.99951,3.99951,0,0,0,86.0025,40.5H84.806l-.47876-.71838a4,4,0,0,0-6.65692-.00006L77.19147,40.5H76a4,4,0,0,0-3.32843,6.21844L72.85919,47l-.18762.28156A4,4,0,0,0,76,53.5h1.19147l.47888.71844A4.00016,4.00016,0,0,0,80.99878,56h.00006a4,4,0,0,0,3.32843-1.78162L84.806,53.5H85.9975a4,4,0,0,0,3.32843-6.21844ZM85.9975,49.5H82.665L80.99878,52l-1.66626-2.5H76L77.66626,47,76,44.5h3.33252L80.99878,42l1.6662,2.5H85.9975L84.33124,47Z"/><path d="M56,44.5a3.99783,3.99783,0,0,0-3.9975-4H50.806l-.47882-.71838a4,4,0,0,0-6.65692,0L43.19147,40.5H42a4,4,0,0,0-3.32843,6.21844L38.85925,47l-.18768.28156A4,4,0,0,0,42,53.5h1.19147l.47882.71838a4,4,0,0,0,6.65692,0L50.806,53.5H51.9975A4,4,0,0,0,55.326,47.28156L55.13831,47l.12354-.18536A3.97912,3.97912,0,0,0,56,44.5Zm-4.0025,5H48.665L46.99878,52l-1.66626-2.5H42L43.66626,47,42,44.5h3.33252L46.99878,42l1.6662,2.5H51.9975L50.33124,47Z"/><path d="M69,72H67V52a1.99971,1.99971,0,0,0-3.2998-1.51953l-6,5.13379a1.99962,1.99962,0,1,0,2.59961,3.03906L63,56.34375V72H61a2,2,0,0,0,0,4h8a2,2,0,0,0,0-4Z"/><path d="M99,49A35,35,0,1,0,64,84,35.03994,35.03994,0,0,0,99,49ZM64,80A31,31,0,1,1,95,49,31.03473,31.03473,0,0,1,64,80Z"/></svg>
