<svg id="Capa_1" enable-background="new 0 0 512 512" height="512" viewBox="0 0 512 512" width="512" xmlns="http://www.w3.org/2000/svg"><g><path d="m505.902 343.415-46.491-49.573c-8.204-8.748-21.772-9.553-30.889-1.828-6.909 5.854-14.115 11.337-21.571 16.442l-113.284-182.022c2.271-1.718 4.458-3.597 6.528-5.666 0 0 0 0 0-.001 24.369-24.369 24.368-64.02 0-88.389-24.369-24.367-64.02-24.367-88.388 0-11.805 11.805-18.306 27.5-18.306 44.194s6.501 32.39 18.306 44.195c2.12 2.12 4.362 4.044 6.694 5.795v33.745h-41.615c-4.142 0-7.5 3.357-7.5 7.5s3.358 7.5 7.5 7.5h64.114c4.136 0 7.5 3.364 7.5 7.5v44.118c0 4.136-3.364 7.5-7.5 7.5h-133.939c-4.136 0-7.5-3.364-7.5-7.5v-44.118c0-4.136 3.364-7.5 7.5-7.5h39.821c4.142 0 7.5-3.357 7.5-7.5s-3.358-7.5-7.5-7.5h-39.821c-9.777 0-18.114 6.271-21.21 15h-42.141c-3.096-8.729-11.432-15-21.21-15-12.407 0-22.5 10.094-22.5 22.5v42.897c0 12.406 10.093 22.5 22.5 22.5 9.316 0 17.327-5.691 20.74-13.779h42.611c3.096 8.729 11.432 15 21.21 15h34.726l-36.738 59.03c-7.457-5.105-14.662-10.588-21.572-16.442-9.118-7.723-22.686-6.921-30.889 1.827l-46.49 49.575c-4.175 4.452-6.386 10.501-6.067 16.597.322 6.141 3.054 11.73 7.692 15.738 51.539 44.547 114.062 74.32 181.081 86.301 6.981 20.807 26.649 35.846 49.776 35.846h34.839c23.127 0 42.795-15.038 49.776-35.845 67.02-11.981 129.543-41.754 181.082-86.301 4.638-4.009 7.37-9.599 7.692-15.739.32-6.096-1.891-12.145-6.067-16.597zm-460.902-153.107h39.561v29.118h-39.561zm-15 35.397c0 4.136-3.364 7.5-7.5 7.5s-7.5-3.364-7.5-7.5v-42.897c0-4.136 3.364-7.5 7.5-7.5s7.5 3.364 7.5 7.5zm342.327 102.819-78.827-126.656v-47.313l100.838 162.023c-7.148 4.323-14.494 8.31-22.011 11.946zm-163.827-251.951c0-12.687 4.941-24.616 13.913-33.587 9.26-9.261 21.424-13.891 33.587-13.891s24.328 4.63 33.588 13.891c18.52 18.52 18.52 48.654 0 67.175-18.521 18.521-48.656 18.521-67.175 0-8.972-8.972-13.913-20.901-13.913-33.588zm55 150.353v-44.118c0-12.406-10.093-22.5-22.5-22.5h-7.5v-25.444c7.224 2.776 14.859 4.181 22.5 4.181 7.639 0 15.275-1.405 22.5-4.182v136.321c0 4.143 3.358 7.5 7.5 7.5s7.5-3.357 7.5-7.5v-40.927l65.018 104.468c-13.823 5.744-28.133 10.331-42.76 13.677-5.647-7.692-13.332-13.795-22.258-17.505v-29.711c0-4.143-3.358-7.5-7.5-7.5s-7.5 3.357-7.5 7.5v25.961c-1.673-.161-3.366-.25-5.081-.25h-34.839c-1.714 0-3.408.089-5.081.25v-77.721h7.5c12.408 0 22.501-10.094 22.501-22.5zm-45 22.5v81.47c-8.925 3.709-16.609 9.811-22.256 17.502-14.627-3.345-28.938-7.93-42.762-13.674l53.087-85.298zm-59.045 0h29.446l-49.227 79.096c-7.517-3.635-14.864-7.621-22.012-11.945zm9.606 193.127 6.628-24.823c1.069-4.002-1.31-8.112-5.312-9.181-3.999-1.065-8.112 1.31-9.181 5.312l-6.631 24.834c-9.312-2.687-18.499-5.745-27.545-9.158l9.563-23.836c1.542-3.844-.324-8.211-4.168-9.753-3.845-1.543-8.211.323-9.753 4.169l-9.566 23.844c-9.046-3.846-17.93-8.062-26.636-12.628l12.388-22.498c1.998-3.628.676-8.189-2.952-10.188-3.629-1.998-8.19-.676-10.188 2.953l-12.392 22.503c-8.692-5.027-17.181-10.422-25.449-16.167l15.082-20.815c2.431-3.354 1.682-8.043-1.673-10.474-3.354-2.432-8.043-1.682-10.474 1.673l-15.072 20.804c-6.208-4.704-12.282-9.608-18.199-14.722-1.52-1.312-2.415-3.151-2.521-5.176-.108-2.067.612-4.039 2.029-5.549l46.491-49.575c2.734-2.913 7.236-3.196 10.251-.643 33.258 28.176 72.93 48.34 115.236 58.655-1.894 5.416-2.937 11.229-2.937 17.283v66c0 .299.018.594.023.892-5.718-1.111-11.4-2.357-17.042-3.736zm141.858 2.844c0 20.678-16.822 37.5-37.5 37.5h-34.839c-20.678 0-37.5-16.822-37.5-37.5v-66c0-20.678 16.822-37.5 37.5-37.5h34.839c20.678 0 37.5 16.822 37.5 37.5zm186.071-86.171c-.106 2.024-1.001 3.863-2.521 5.177-5.917 5.114-11.991 10.018-18.199 14.722l-15.073-20.803c-2.43-3.354-7.12-4.103-10.474-1.673-3.354 2.431-4.104 7.119-1.673 10.474l15.082 20.816c-8.268 5.745-16.757 11.14-25.449 16.167l-12.392-22.504c-1.998-3.628-6.561-4.949-10.188-2.951-3.628 1.998-4.95 6.559-2.952 10.188l12.389 22.497c-8.706 4.566-17.589 8.782-26.636 12.628l-9.566-23.844c-1.542-3.845-5.906-5.71-9.753-4.169-3.844 1.542-5.71 5.909-4.168 9.753l9.563 23.836c-9.046 3.412-18.233 6.47-27.545 9.157l-6.631-24.834c-1.068-4.003-5.18-6.377-9.181-5.312-4.002 1.068-6.38 5.179-5.312 9.181l6.628 24.822c-5.642 1.379-11.324 2.625-17.042 3.735.005-.298.023-.592.023-.891v-66c0-6.054-1.042-11.867-2.937-17.283 42.307-10.315 81.979-30.479 115.236-58.655 3.015-2.554 7.519-2.271 10.251.644l46.491 49.574c1.416 1.509 2.137 3.481 2.029 5.548z"/><path d="m256 384.897c-15.164 0-27.5 12.337-27.5 27.5s12.336 27.5 27.5 27.5 27.5-12.337 27.5-27.5-12.336-27.5-27.5-27.5zm0 40c-6.893 0-12.5-5.607-12.5-12.5s5.607-12.5 12.5-12.5 12.5 5.607 12.5 12.5-5.607 12.5-12.5 12.5z"/><path d="m239.558 100.515c1.919 0 3.839-.732 5.303-2.196l32.884-32.884c2.929-2.93 2.929-7.678 0-10.607-2.929-2.928-7.678-2.928-10.606 0l-32.884 32.884c-2.929 2.93-2.929 7.678 0 10.607 1.464 1.464 3.384 2.196 5.303 2.196z"/></g></svg>